<svg width="834" height="793" viewBox="0 0 834 793" fill="none" xmlns="http://www.w3.org/2000/svg">
<path d="M381.167 98C381.167 100.946 383.554 103.333 386.5 103.333C389.446 103.333 391.833 100.946 391.833 98C391.833 95.0545 389.446 92.6667 386.5 92.6667C383.554 92.6667 381.167 95.0545 381.167 98ZM387.5 134V98H385.5V134H387.5Z" fill="url(#paint0_linear_3672_283)"/>
<path d="M322 103H323V102.581L322.701 102.287L322 103ZM293.5 75H292.5V75.4194L292.799 75.7133L293.5 75ZM288.167 65.5C288.167 68.4455 290.554 70.8333 293.5 70.8333C296.446 70.8333 298.833 68.4455 298.833 65.5C298.833 62.5545 296.446 60.1667 293.5 60.1667C290.554 60.1667 288.167 62.5545 288.167 65.5ZM323 142.5V103H321V142.5H323ZM322.701 102.287L294.201 74.2867L292.799 75.7133L321.299 103.713L322.701 102.287ZM294.5 75V65.5H292.5V75H294.5Z" fill="url(#paint1_linear_3672_283)"/>
<path d="M324 56.5H323V56.9264L323.308 57.2216L324 56.5ZM318.667 6C318.667 8.94552 321.054 11.3333 324 11.3333C326.946 11.3333 329.333 8.94552 329.333 6C329.333 3.05448 326.946 0.666667 324 0.666667C321.054 0.666667 318.667 3.05448 318.667 6ZM361.692 91.2784L324.692 55.7784L323.308 57.2216L360.308 92.7216L361.692 91.2784ZM325 56.5V6H323V56.5H325Z" fill="url(#paint2_linear_3672_283)"/>
<path d="M313.5 25L314.19 24.2766L313.901 24H313.5V25ZM299.667 25C299.667 27.9455 302.054 30.3333 305 30.3333C307.946 30.3333 310.333 27.9455 310.333 25C310.333 22.0545 307.946 19.6667 305 19.6667C302.054 19.6667 299.667 22.0545 299.667 25ZM325.19 34.7766L314.19 24.2766L312.81 25.7234L323.81 36.2234L325.19 34.7766ZM313.5 24H305V26H313.5V24Z" fill="url(#paint3_linear_3672_283)"/>
<path d="M332.5 22L331.793 21.2929L331.5 21.5858V22H332.5ZM338.167 11C338.167 13.9455 340.554 16.3333 343.5 16.3333C346.446 16.3333 348.833 13.9455 348.833 11C348.833 8.05448 346.446 5.66667 343.5 5.66667C340.554 5.66667 338.167 8.05448 338.167 11ZM333.5 64V22H331.5V64H333.5ZM333.207 22.7071L344.207 11.7071L342.793 10.2929L331.793 21.2929L333.207 22.7071Z" fill="url(#paint4_linear_3672_283)"/>
<path d="M310 317.5H311V317.076L310.695 316.781L310 317.5ZM294.5 302.5L295.195 301.781L294.905 301.5H294.5V302.5ZM278.167 302.5C278.167 305.446 280.554 307.833 283.5 307.833C286.446 307.833 288.833 305.446 288.833 302.5C288.833 299.554 286.446 297.167 283.5 297.167C280.554 297.167 278.167 299.554 278.167 302.5ZM311 339V317.5H309V339H311ZM310.695 316.781L295.195 301.781L293.805 303.219L309.305 318.219L310.695 316.781ZM294.5 301.5H283.5V303.5H294.5V301.5Z" fill="url(#paint5_linear_3672_283)"/>
<path d="M206 184.5L205.289 185.204L205.583 185.5H206V184.5ZM156 134L156.711 133.296L156.417 133H156V134ZM125.167 134C125.167 136.946 127.554 139.333 130.5 139.333C133.446 139.333 135.833 136.946 135.833 134C135.833 131.054 133.446 128.667 130.5 128.667C127.554 128.667 125.167 131.054 125.167 134ZM239.5 183.5H206V185.5H239.5V183.5ZM206.711 183.796L156.711 133.296L155.289 134.704L205.289 185.204L206.711 183.796ZM156 133H130.5V135H156V133Z" fill="url(#paint6_linear_3672_283)"/>
<path d="M302.5 193.5H303.5V193.092L303.215 192.801L302.5 193.5ZM280 170.5L280.715 169.801L280.421 169.5H280V170.5ZM260.5 170.5L259.793 171.207L260.086 171.5H260.5V170.5ZM233.5 143.5H232.5V143.914L232.793 144.207L233.5 143.5ZM228.167 138C228.167 140.946 230.554 143.333 233.5 143.333C236.446 143.333 238.833 140.946 238.833 138C238.833 135.054 236.446 132.667 233.5 132.667C230.554 132.667 228.167 135.054 228.167 138ZM303.5 217.5V193.5H301.5V217.5H303.5ZM303.215 192.801L280.715 169.801L279.285 171.199L301.785 194.199L303.215 192.801ZM280 169.5H260.5V171.5H280V169.5ZM261.207 169.793L234.207 142.793L232.793 144.207L259.793 171.207L261.207 169.793ZM234.5 143.5V138H232.5V143.5H234.5Z" fill="url(#paint7_linear_3672_283)"/>
<path d="M310 189H311V188.596L310.719 188.305L310 189ZM282 160L282.719 159.305L282.425 159H282V160ZM265 160L264.255 160.667L264.553 161H265V160ZM256.5 150.5H255.5V150.882L255.755 151.167L256.5 150.5ZM251.167 148C251.167 150.946 253.554 153.333 256.5 153.333C259.446 153.333 261.833 150.946 261.833 148C261.833 145.054 259.446 142.667 256.5 142.667C253.554 142.667 251.167 145.054 251.167 148ZM311 222.5V189H309V222.5H311ZM310.719 188.305L282.719 159.305L281.281 160.695L309.281 189.695L310.719 188.305ZM282 159H265V161H282V159ZM265.745 159.333L257.245 149.833L255.755 151.167L264.255 160.667L265.745 159.333ZM257.5 150.5V148H255.5V150.5H257.5Z" fill="url(#paint8_linear_3672_283)"/>
<path d="M316.5 181.5H317.5V181.09L317.212 180.798L316.5 181.5ZM278.667 148.5C278.667 151.446 281.054 153.833 284 153.833C286.946 153.833 289.333 151.446 289.333 148.5C289.333 145.554 286.946 143.167 284 143.167C281.054 143.167 278.667 145.554 278.667 148.5ZM317.5 230V181.5H315.5V230H317.5ZM317.212 180.798L284.712 147.798L283.288 149.202L315.788 182.202L317.212 180.798Z" fill="url(#paint9_linear_3672_283)"/>
<path d="M148.5 240.5H149.5V240.127L149.256 239.845L148.5 240.5ZM142 233L142.756 232.345L142.457 232H142V233ZM133 233L132.293 233.707L132.586 234H133V233ZM121.5 221.5H120.5V221.914L120.793 222.207L121.5 221.5ZM121.5 209H122.5V208.586L122.207 208.293L121.5 209ZM93 180.5L93.7071 179.793L93.4142 179.5H93V180.5ZM75.6667 180.5C75.6667 183.446 78.0545 185.833 81 185.833C83.9455 185.833 86.3333 183.446 86.3333 180.5C86.3333 177.554 83.9455 175.167 81 175.167C78.0545 175.167 75.6667 177.554 75.6667 180.5ZM149.5 251.5V240.5H147.5V251.5H149.5ZM149.256 239.845L142.756 232.345L141.244 233.655L147.744 241.155L149.256 239.845ZM142 232H133V234H142V232ZM133.707 232.293L122.207 220.793L120.793 222.207L132.293 233.707L133.707 232.293ZM122.5 221.5V209H120.5V221.5H122.5ZM122.207 208.293L93.7071 179.793L92.2929 181.207L120.793 209.707L122.207 208.293ZM93 179.5H81V181.5H93V179.5Z" fill="url(#paint10_linear_3672_283)"/>
<path d="M88.6667 159.5C88.6667 162.446 91.0545 164.833 94 164.833C96.9455 164.833 99.3333 162.446 99.3333 159.5C99.3333 156.554 96.9455 154.167 94 154.167C91.0545 154.167 88.6667 156.554 88.6667 159.5ZM155.695 217.781L94.6952 158.781L93.3048 160.219L154.305 219.219L155.695 217.781Z" fill="url(#paint11_linear_3672_283)"/>
<path d="M211 266H212V265.567L211.684 265.27L211 266ZM195 251H194V251.433L194.316 251.73L195 251ZM195 228H196V227.58L195.7 227.286L195 228ZM145 179H144V179.42L144.3 179.714L145 179ZM139.667 172C139.667 174.946 142.054 177.333 145 177.333C147.946 177.333 150.333 174.946 150.333 172C150.333 169.054 147.946 166.667 145 166.667C142.054 166.667 139.667 169.054 139.667 172ZM212 280V266H210V280H212ZM211.684 265.27L195.684 250.27L194.316 251.73L210.316 266.73L211.684 265.27ZM196 251V228H194V251H196ZM195.7 227.286L145.7 178.286L144.3 179.714L194.3 228.714L195.7 227.286ZM146 179V172H144V179H146Z" fill="url(#paint12_linear_3672_283)"/>
<path d="M219 264.5H220V264.099L219.723 263.809L219 264.5ZM208 253H207V253.401L207.277 253.691L208 253ZM202.667 245.5C202.667 248.446 205.054 250.833 208 250.833C210.946 250.833 213.333 248.446 213.333 245.5C213.333 242.554 210.946 240.167 208 240.167C205.054 240.167 202.667 242.554 202.667 245.5ZM220 280V264.5H218V280H220ZM219.723 263.809L208.723 252.309L207.277 253.691L218.277 265.191L219.723 263.809ZM209 253V245.5H207V253H209Z" fill="url(#paint13_linear_3672_283)"/>
<path d="M242.5 290.5H243.5V290.096L243.219 289.805L242.5 290.5ZM228 275.5H227V275.904L227.281 276.195L228 275.5ZM222.667 259.5C222.667 262.446 225.054 264.833 228 264.833C230.946 264.833 233.333 262.446 233.333 259.5C233.333 256.554 230.946 254.167 228 254.167C225.054 254.167 222.667 256.554 222.667 259.5ZM243.5 302.5V290.5H241.5V302.5H243.5ZM243.219 289.805L228.719 274.805L227.281 276.195L241.781 291.195L243.219 289.805ZM229 275.5V259.5H227V275.5H229Z" fill="url(#paint14_linear_3672_283)"/>
<path d="M103.5 284L102.908 284.806L103.172 285H103.5V284ZM56.6667 253.5C56.6667 256.446 59.0545 258.833 62 258.833C64.9455 258.833 67.3333 256.446 67.3333 253.5C67.3333 250.554 64.9455 248.167 62 248.167C59.0545 248.167 56.6667 250.554 56.6667 253.5ZM141.5 283H103.5V285H141.5V283ZM104.092 283.194L62.5922 252.694L61.4078 254.306L102.908 284.806L104.092 283.194Z" fill="url(#paint15_linear_3672_283)"/>
<path d="M320.5 295.5L319.799 296.213L320.091 296.5H320.5V295.5ZM286.667 267.5C286.667 270.446 289.054 272.833 292 272.833C294.946 272.833 297.333 270.446 297.333 267.5C297.333 264.554 294.946 262.167 292 262.167C289.054 262.167 286.667 264.554 286.667 267.5ZM350.5 294.5H320.5V296.5H350.5V294.5ZM321.201 294.787L292.701 266.787L291.299 268.213L319.799 296.213L321.201 294.787Z" fill="url(#paint16_linear_3672_283)"/>
<path d="M174 252H173V252.403L173.28 252.694L174 252ZM174 239.5H175V239.103L174.728 238.814L174 239.5ZM152.167 222C152.167 224.946 154.554 227.333 157.5 227.333C160.446 227.333 162.833 224.946 162.833 222C162.833 219.054 160.446 216.667 157.5 216.667C154.554 216.667 152.167 219.054 152.167 222ZM201.22 278.806L174.72 251.306L173.28 252.694L199.78 280.194L201.22 278.806ZM175 252V239.5H173V252H175ZM174.728 238.814L158.228 221.314L156.772 222.686L173.272 240.186L174.728 238.814Z" fill="url(#paint17_linear_3672_283)"/>
<path d="M118 251.5L117.293 252.207L117.586 252.5H118V251.5ZM91.1667 230C91.1667 232.946 93.5545 235.333 96.5 235.333C99.4455 235.333 101.833 232.946 101.833 230C101.833 227.054 99.4455 224.667 96.5 224.667C93.5545 224.667 91.1667 227.054 91.1667 230ZM174.5 250.5H118V252.5H174.5V250.5ZM118.707 250.793L97.2071 229.293L95.7929 230.707L117.293 252.207L118.707 250.793Z" fill="url(#paint18_linear_3672_283)"/>
<path d="M63.5 321L64.2071 320.293L63.9142 320H63.5V321ZM4.16667 321C4.16667 323.946 6.55448 326.333 9.5 326.333C12.4455 326.333 14.8333 323.946 14.8333 321C14.8333 318.054 12.4455 315.667 9.5 315.667C6.55448 315.667 4.16667 318.054 4.16667 321ZM101.707 357.793L64.2071 320.293L62.7929 321.707L100.293 359.207L101.707 357.793ZM63.5 320H9.5V322H63.5V320Z" fill="url(#paint19_linear_3672_283)"/>
<path d="M60 328.5L60.7071 327.793L60.4142 327.5H60V328.5ZM38.5 328.5V327.5H38.0858L37.7929 327.793L38.5 328.5ZM23.1667 338.5C23.1667 341.446 25.5545 343.833 28.5 343.833C31.4455 343.833 33.8333 341.446 33.8333 338.5C33.8333 335.554 31.4455 333.167 28.5 333.167C25.5545 333.167 23.1667 335.554 23.1667 338.5ZM90.2071 357.293L60.7071 327.793L59.2929 329.207L88.7929 358.707L90.2071 357.293ZM60 327.5H38.5V329.5H60V327.5ZM37.7929 327.793L27.7929 337.793L29.2071 339.207L39.2071 329.207L37.7929 327.793Z" fill="url(#paint20_linear_3672_283)"/>
<path d="M111.5 343.5V344.5H111.902L112.193 344.221L111.5 343.5ZM97 343.5L96.299 344.213L96.5908 344.5H97V343.5ZM67.5 314.5L68.201 313.787L67.9212 313.512L67.529 313.5L67.5 314.5ZM33 313.5L32.1679 314.055L32.4546 314.485L32.971 314.5L33 313.5ZM22.6667 306C22.6667 308.946 25.0545 311.333 28 311.333C30.9455 311.333 33.3333 308.946 33.3333 306C33.3333 303.054 30.9455 300.667 28 300.667C25.0545 300.667 22.6667 303.054 22.6667 306ZM123.307 330.779L110.807 342.779L112.193 344.221L124.693 332.221L123.307 330.779ZM111.5 342.5H97V344.5H111.5V342.5ZM97.701 342.787L68.201 313.787L66.799 315.213L96.299 344.213L97.701 342.787ZM67.529 313.5L33.029 312.5L32.971 314.5L67.471 315.5L67.529 313.5ZM33.8321 312.945L28.8321 305.445L27.1679 306.555L32.1679 314.055L33.8321 312.945Z" fill="url(#paint21_linear_3672_283)"/>
<path d="M112.5 359V360H112.919L113.213 359.701L112.5 359ZM60.1667 359C60.1667 361.946 62.5545 364.333 65.5 364.333C68.4455 364.333 70.8333 361.946 70.8333 359C70.8333 356.054 68.4455 353.667 65.5 353.667C62.5545 353.667 60.1667 356.054 60.1667 359ZM139.787 329.799L111.787 358.299L113.213 359.701L141.213 331.201L139.787 329.799ZM112.5 358H65.5V360H112.5V358Z" fill="url(#paint22_linear_3672_283)"/>
<path d="M166.5 265.5L165.824 266.237L166.111 266.5H166.5V265.5ZM160.5 260L161.176 259.263L160.889 259H160.5V260ZM119 260V259H118.552L118.254 259.334L119 260ZM106.5 274L105.887 274.79L106.624 275.362L107.246 274.666L106.5 274ZM47.6667 232.5C47.6667 235.446 50.0545 237.833 53 237.833C55.9455 237.833 58.3333 235.446 58.3333 232.5C58.3333 229.554 55.9455 227.167 53 227.167C50.0545 227.167 47.6667 229.554 47.6667 232.5ZM187.5 264.5H166.5V266.5H187.5V264.5ZM167.176 264.763L161.176 259.263L159.824 260.737L165.824 266.237L167.176 264.763ZM160.5 259H119V261H160.5V259ZM118.254 259.334L105.754 273.334L107.246 274.666L119.746 260.666L118.254 259.334ZM107.113 273.21L53.6129 231.71L52.3871 233.29L105.887 274.79L107.113 273.21Z" fill="url(#paint23_linear_3672_283)"/>
<path d="M362 113H361V113.426L361.307 113.721L362 113ZM356.667 50.5C356.667 53.4455 359.054 55.8333 362 55.8333C364.946 55.8333 367.333 53.4455 367.333 50.5C367.333 47.5545 364.946 45.1667 362 45.1667C359.054 45.1667 356.667 47.5545 356.667 50.5ZM426.693 173.779L362.693 112.279L361.307 113.721L425.307 175.221L426.693 173.779ZM363 113V50.5H361V113H363Z" fill="url(#paint24_linear_3672_283)"/>
<path d="M333.5 195H332.5V195.421L332.801 195.716L333.5 195ZM333.5 155H334.5V154.621L334.249 154.338L333.5 155ZM303 120.5L303.749 119.838L303.451 119.5H303V120.5ZM285.5 120.5L284.784 121.198L285.079 121.5H285.5V120.5ZM265.5 100H264.5V100.407L264.784 100.698L265.5 100ZM265.5 70H266.5V69.5943L266.217 69.3032L265.5 70ZM243.167 52.5C243.167 55.4455 245.554 57.8333 248.5 57.8333C251.446 57.8333 253.833 55.4455 253.833 52.5C253.833 49.5545 251.446 47.1667 248.5 47.1667C245.554 47.1667 243.167 49.5545 243.167 52.5ZM376.199 235.284L334.199 194.284L332.801 195.716L374.801 236.716L376.199 235.284ZM334.5 195V155H332.5V195H334.5ZM334.249 154.338L303.749 119.838L302.251 121.162L332.751 155.662L334.249 154.338ZM303 119.5H285.5V121.5H303V119.5ZM286.216 119.802L266.216 99.3017L264.784 100.698L284.784 121.198L286.216 119.802ZM266.5 100V70H264.5V100H266.5ZM266.217 69.3032L249.217 51.8032L247.783 53.1968L264.783 70.6968L266.217 69.3032Z" fill="url(#paint25_linear_3672_283)"/>
<path d="M377.5 248H376.5V248.408L376.786 248.7L377.5 248ZM377.5 191.5H378.5V191.149L378.281 190.875L377.5 191.5ZM368.167 186.5C368.167 189.446 370.554 191.833 373.5 191.833C376.446 191.833 378.833 189.446 378.833 186.5C378.833 183.554 376.446 181.167 373.5 181.167C370.554 181.167 368.167 183.554 368.167 186.5ZM426.714 296.8L378.214 247.3L376.786 248.7L425.286 298.2L426.714 296.8ZM378.5 248V191.5H376.5V248H378.5ZM378.281 190.875L374.281 185.875L372.719 187.125L376.719 192.125L378.281 190.875Z" fill="url(#paint26_linear_3672_283)"/>
<path d="M325.5 368.5L324.793 369.207L325.086 369.5H325.5V368.5ZM319 362H318V362.414L318.293 362.707L319 362ZM319 351.5H320V351.078L319.697 350.783L319 351.5ZM300.5 333.5L301.197 332.783L300.906 332.5H300.5V333.5ZM271.5 333.5L270.796 334.21L271.089 334.5H271.5V333.5ZM218.5 281L219.204 280.29L218.911 280H218.5V281ZM144.667 281C144.667 283.946 147.054 286.333 150 286.333C152.946 286.333 155.333 283.946 155.333 281C155.333 278.054 152.946 275.667 150 275.667C147.054 275.667 144.667 278.054 144.667 281ZM366 367.5H325.5V369.5H366V367.5ZM326.207 367.793L319.707 361.293L318.293 362.707L324.793 369.207L326.207 367.793ZM320 362V351.5H318V362H320ZM319.697 350.783L301.197 332.783L299.803 334.217L318.303 352.217L319.697 350.783ZM300.5 332.5H271.5V334.5H300.5V332.5ZM272.204 332.79L219.204 280.29L217.796 281.71L270.796 334.21L272.204 332.79ZM218.5 280H150V282H218.5V280Z" fill="url(#paint27_linear_3672_283)"/>
<path d="M380.5 311H381.5V310.586L381.207 310.293L380.5 311ZM371 301.5L371.707 300.793L371.414 300.5H371V301.5ZM356.5 301.5L355.782 302.196L356.076 302.5H356.5V301.5ZM325.5 269.5H324.5V269.905L324.782 270.196L325.5 269.5ZM325.5 242H326.5V241.58L326.2 241.286L325.5 242ZM299 216L299.7 215.286L299.409 215H299V216ZM267.5 216L266.793 216.707L267.086 217H267.5V216ZM246.5 195L245.698 195.597L245.741 195.656L245.793 195.707L246.5 195ZM230.5 173.5L231.302 172.903L231.261 172.847L231.212 172.798L230.5 173.5ZM193.5 136H192.5V136.41L192.788 136.702L193.5 136ZM188.167 89.5C188.167 92.4455 190.554 94.8333 193.5 94.8333C196.446 94.8333 198.833 92.4455 198.833 89.5C198.833 86.5545 196.446 84.1667 193.5 84.1667C190.554 84.1667 188.167 86.5545 188.167 89.5ZM381.5 355V311H379.5V355H381.5ZM381.207 310.293L371.707 300.793L370.293 302.207L379.793 311.707L381.207 310.293ZM371 300.5H356.5V302.5H371V300.5ZM357.218 300.804L326.218 268.804L324.782 270.196L355.782 302.196L357.218 300.804ZM326.5 269.5V242H324.5V269.5H326.5ZM326.2 241.286L299.7 215.286L298.3 216.714L324.8 242.714L326.2 241.286ZM299 215H267.5V217H299V215ZM268.207 215.293L247.207 194.293L245.793 195.707L266.793 216.707L268.207 215.293ZM247.302 194.403L231.302 172.903L229.698 174.097L245.698 195.597L247.302 194.403ZM231.212 172.798L194.212 135.298L192.788 136.702L229.788 174.202L231.212 172.798ZM194.5 136V89.5H192.5V136H194.5Z" fill="url(#paint28_linear_3672_283)"/>
<path d="M299.5 390.5L298.769 391.182L299.065 391.5H299.5V390.5ZM292.5 383L293.231 382.318L292.935 382H292.5V383ZM253.5 383L252.796 383.71L253.089 384H253.5V383ZM200 330L200.704 329.29L200.411 329H200V330ZM112.5 330L111.793 330.707L112.086 331H112.5V330ZM69.6667 292.5C69.6667 295.446 72.0545 297.833 75 297.833C77.9455 297.833 80.3333 295.446 80.3333 292.5C80.3333 289.554 77.9455 287.167 75 287.167C72.0545 287.167 69.6667 289.554 69.6667 292.5ZM364.5 389.5H299.5V391.5H364.5V389.5ZM300.231 389.818L293.231 382.318L291.769 383.682L298.769 391.182L300.231 389.818ZM292.5 382H253.5V384H292.5V382ZM254.204 382.29L200.704 329.29L199.296 330.71L252.796 383.71L254.204 382.29ZM200 329H112.5V331H200V329ZM113.207 329.293L75.7071 291.793L74.2929 293.207L111.793 330.707L113.207 329.293Z" fill="url(#paint29_linear_3672_283)"/>
<path d="M381.167 695C381.167 692.054 383.554 689.667 386.5 689.667C389.446 689.667 391.833 692.054 391.833 695C391.833 697.946 389.446 700.333 386.5 700.333C383.554 700.333 381.167 697.946 381.167 695ZM387.5 659V695H385.5V659H387.5Z" fill="url(#paint30_linear_3672_283)"/>
<path d="M322 690H323V690.419L322.701 690.713L322 690ZM293.5 718H292.5V717.581L292.799 717.287L293.5 718ZM288.167 727.5C288.167 724.554 290.554 722.167 293.5 722.167C296.446 722.167 298.833 724.554 298.833 727.5C298.833 730.446 296.446 732.833 293.5 732.833C290.554 732.833 288.167 730.446 288.167 727.5ZM323 650.5V690H321V650.5H323ZM322.701 690.713L294.201 718.713L292.799 717.287L321.299 689.287L322.701 690.713ZM294.5 718V727.5H292.5V718H294.5Z" fill="url(#paint31_linear_3672_283)"/>
<path d="M324 736.5H323V736.074L323.308 735.778L324 736.5ZM318.667 787C318.667 784.054 321.054 781.667 324 781.667C326.946 781.667 329.333 784.054 329.333 787C329.333 789.946 326.946 792.333 324 792.333C321.054 792.333 318.667 789.946 318.667 787ZM361.692 701.722L324.692 737.222L323.308 735.778L360.308 700.278L361.692 701.722ZM325 736.5V787H323V736.5H325Z" fill="url(#paint32_linear_3672_283)"/>
<path d="M313.5 768L314.19 768.723L313.901 769H313.5V768ZM299.667 768C299.667 765.054 302.054 762.667 305 762.667C307.946 762.667 310.333 765.054 310.333 768C310.333 770.946 307.946 773.333 305 773.333C302.054 773.333 299.667 770.946 299.667 768ZM325.19 758.223L314.19 768.723L312.81 767.277L323.81 756.777L325.19 758.223ZM313.5 769H305V767H313.5V769Z" fill="url(#paint33_linear_3672_283)"/>
<path d="M332.5 771L331.793 771.707L331.5 771.414V771H332.5ZM338.167 782C338.167 779.054 340.554 776.667 343.5 776.667C346.446 776.667 348.833 779.054 348.833 782C348.833 784.946 346.446 787.333 343.5 787.333C340.554 787.333 338.167 784.946 338.167 782ZM333.5 729V771H331.5V729H333.5ZM333.207 770.293L344.207 781.293L342.793 782.707L331.793 771.707L333.207 770.293Z" fill="url(#paint34_linear_3672_283)"/>
<path d="M310 475.5H311V475.924L310.695 476.219L310 475.5ZM294.5 490.5L295.195 491.219L294.905 491.5H294.5V490.5ZM278.167 490.5C278.167 487.554 280.554 485.167 283.5 485.167C286.446 485.167 288.833 487.554 288.833 490.5C288.833 493.446 286.446 495.833 283.5 495.833C280.554 495.833 278.167 493.446 278.167 490.5ZM311 454V475.5H309V454H311ZM310.695 476.219L295.195 491.219L293.805 489.781L309.305 474.781L310.695 476.219ZM294.5 491.5H283.5V489.5H294.5V491.5Z" fill="url(#paint35_linear_3672_283)"/>
<path d="M206 608.5L205.289 607.796L205.583 607.5H206V608.5ZM156 659L156.711 659.704L156.417 660H156V659ZM125.167 659C125.167 656.054 127.554 653.667 130.5 653.667C133.446 653.667 135.833 656.054 135.833 659C135.833 661.946 133.446 664.333 130.5 664.333C127.554 664.333 125.167 661.946 125.167 659ZM239.5 609.5H206V607.5H239.5V609.5ZM206.711 609.204L156.711 659.704L155.289 658.296L205.289 607.796L206.711 609.204ZM156 660H130.5V658H156V660Z" fill="url(#paint36_linear_3672_283)"/>
<path d="M302.5 599.5H303.5V599.908L303.215 600.199L302.5 599.5ZM280 622.5L280.715 623.199L280.421 623.5H280V622.5ZM260.5 622.5L259.793 621.793L260.086 621.5H260.5V622.5ZM233.5 649.5H232.5V649.086L232.793 648.793L233.5 649.5ZM228.167 655C228.167 652.054 230.554 649.667 233.5 649.667C236.446 649.667 238.833 652.054 238.833 655C238.833 657.946 236.446 660.333 233.5 660.333C230.554 660.333 228.167 657.946 228.167 655ZM303.5 575.5V599.5H301.5V575.5H303.5ZM303.215 600.199L280.715 623.199L279.285 621.801L301.785 598.801L303.215 600.199ZM280 623.5H260.5V621.5H280V623.5ZM261.207 623.207L234.207 650.207L232.793 648.793L259.793 621.793L261.207 623.207ZM234.5 649.5V655H232.5V649.5H234.5Z" fill="url(#paint37_linear_3672_283)"/>
<path d="M310 604H311V604.404L310.719 604.695L310 604ZM282 633L282.719 633.695L282.425 634H282V633ZM265 633L264.255 632.333L264.553 632H265V633ZM256.5 642.5H255.5V642.118L255.755 641.833L256.5 642.5ZM251.167 645C251.167 642.054 253.554 639.667 256.5 639.667C259.446 639.667 261.833 642.054 261.833 645C261.833 647.946 259.446 650.333 256.5 650.333C253.554 650.333 251.167 647.946 251.167 645ZM311 570.5V604H309V570.5H311ZM310.719 604.695L282.719 633.695L281.281 632.305L309.281 603.305L310.719 604.695ZM282 634H265V632H282V634ZM265.745 633.667L257.245 643.167L255.755 641.833L264.255 632.333L265.745 633.667ZM257.5 642.5V645H255.5V642.5H257.5Z" fill="url(#paint38_linear_3672_283)"/>
<path d="M316.5 611.5H317.5V611.91L317.212 612.202L316.5 611.5ZM278.667 644.5C278.667 641.554 281.054 639.167 284 639.167C286.946 639.167 289.333 641.554 289.333 644.5C289.333 647.446 286.946 649.833 284 649.833C281.054 649.833 278.667 647.446 278.667 644.5ZM317.5 563V611.5H315.5V563H317.5ZM317.212 612.202L284.712 645.202L283.288 643.798L315.788 610.798L317.212 612.202Z" fill="url(#paint39_linear_3672_283)"/>
<path d="M148.5 552.5H149.5V552.873L149.256 553.155L148.5 552.5ZM142 560L142.756 560.655L142.457 561H142V560ZM133 560L132.293 559.293L132.586 559H133V560ZM121.5 571.5H120.5V571.086L120.793 570.793L121.5 571.5ZM121.5 584H122.5V584.414L122.207 584.707L121.5 584ZM93 612.5L93.7071 613.207L93.4142 613.5H93V612.5ZM75.6667 612.5C75.6667 609.554 78.0545 607.167 81 607.167C83.9455 607.167 86.3333 609.554 86.3333 612.5C86.3333 615.446 83.9455 617.833 81 617.833C78.0545 617.833 75.6667 615.446 75.6667 612.5ZM149.5 541.5V552.5H147.5V541.5H149.5ZM149.256 553.155L142.756 560.655L141.244 559.345L147.744 551.845L149.256 553.155ZM142 561H133V559H142V561ZM133.707 560.707L122.207 572.207L120.793 570.793L132.293 559.293L133.707 560.707ZM122.5 571.5V584H120.5V571.5H122.5ZM122.207 584.707L93.7071 613.207L92.2929 611.793L120.793 583.293L122.207 584.707ZM93 613.5H81V611.5H93V613.5Z" fill="url(#paint40_linear_3672_283)"/>
<path d="M88.6667 633.5C88.6667 630.554 91.0545 628.167 94 628.167C96.9455 628.167 99.3333 630.554 99.3333 633.5C99.3333 636.446 96.9455 638.833 94 638.833C91.0545 638.833 88.6667 636.446 88.6667 633.5ZM155.695 575.219L94.6952 634.219L93.3048 632.781L154.305 573.781L155.695 575.219Z" fill="url(#paint41_linear_3672_283)"/>
<path d="M211 527H212V527.433L211.684 527.73L211 527ZM195 542H194V541.567L194.316 541.27L195 542ZM195 565H196V565.42L195.7 565.714L195 565ZM145 614H144V613.58L144.3 613.286L145 614ZM139.667 621C139.667 618.054 142.054 615.667 145 615.667C147.946 615.667 150.333 618.054 150.333 621C150.333 623.946 147.946 626.333 145 626.333C142.054 626.333 139.667 623.946 139.667 621ZM212 513V527H210V513H212ZM211.684 527.73L195.684 542.73L194.316 541.27L210.316 526.27L211.684 527.73ZM196 542V565H194V542H196ZM195.7 565.714L145.7 614.714L144.3 613.286L194.3 564.286L195.7 565.714ZM146 614V621H144V614H146Z" fill="url(#paint42_linear_3672_283)"/>
<path d="M219 528.5H220V528.901L219.723 529.191L219 528.5ZM208 540H207V539.599L207.277 539.309L208 540ZM202.667 547.5C202.667 544.554 205.054 542.167 208 542.167C210.946 542.167 213.333 544.554 213.333 547.5C213.333 550.446 210.946 552.833 208 552.833C205.054 552.833 202.667 550.446 202.667 547.5ZM220 513V528.5H218V513H220ZM219.723 529.191L208.723 540.691L207.277 539.309L218.277 527.809L219.723 529.191ZM209 540V547.5H207V540H209Z" fill="url(#paint43_linear_3672_283)"/>
<path d="M242.5 502.5H243.5V502.904L243.219 503.195L242.5 502.5ZM228 517.5H227V517.096L227.281 516.805L228 517.5ZM222.667 533.5C222.667 530.554 225.054 528.167 228 528.167C230.946 528.167 233.333 530.554 233.333 533.5C233.333 536.446 230.946 538.833 228 538.833C225.054 538.833 222.667 536.446 222.667 533.5ZM243.5 490.5V502.5H241.5V490.5H243.5ZM243.219 503.195L228.719 518.195L227.281 516.805L241.781 501.805L243.219 503.195ZM229 517.5V533.5H227V517.5H229Z" fill="url(#paint44_linear_3672_283)"/>
<path d="M103.5 509L102.908 508.194L103.172 508H103.5V509ZM56.6667 539.5C56.6667 536.554 59.0545 534.167 62 534.167C64.9455 534.167 67.3333 536.554 67.3333 539.5C67.3333 542.446 64.9455 544.833 62 544.833C59.0545 544.833 56.6667 542.446 56.6667 539.5ZM141.5 510H103.5V508H141.5V510ZM104.092 509.806L62.5922 540.306L61.4078 538.694L102.908 508.194L104.092 509.806Z" fill="url(#paint45_linear_3672_283)"/>
<path d="M320.5 497.5L319.799 496.787L320.091 496.5H320.5V497.5ZM286.667 525.5C286.667 522.554 289.054 520.167 292 520.167C294.946 520.167 297.333 522.554 297.333 525.5C297.333 528.446 294.946 530.833 292 530.833C289.054 530.833 286.667 528.446 286.667 525.5ZM350.5 498.5H320.5V496.5H350.5V498.5ZM321.201 498.213L292.701 526.213L291.299 524.787L319.799 496.787L321.201 498.213Z" fill="url(#paint46_linear_3672_283)"/>
<path d="M174 541H173V540.597L173.28 540.306L174 541ZM174 553.5H175V553.897L174.728 554.186L174 553.5ZM152.167 571C152.167 568.054 154.554 565.667 157.5 565.667C160.446 565.667 162.833 568.054 162.833 571C162.833 573.946 160.446 576.333 157.5 576.333C154.554 576.333 152.167 573.946 152.167 571ZM201.22 514.194L174.72 541.694L173.28 540.306L199.78 512.806L201.22 514.194ZM175 541V553.5H173V541H175ZM174.728 554.186L158.228 571.686L156.772 570.314L173.272 552.814L174.728 554.186Z" fill="url(#paint47_linear_3672_283)"/>
<path d="M118 541.5L117.293 540.793L117.586 540.5H118V541.5ZM91.1667 563C91.1667 560.054 93.5545 557.667 96.5 557.667C99.4455 557.667 101.833 560.054 101.833 563C101.833 565.946 99.4455 568.333 96.5 568.333C93.5545 568.333 91.1667 565.946 91.1667 563ZM174.5 542.5H118V540.5H174.5V542.5ZM118.707 542.207L97.2071 563.707L95.7929 562.293L117.293 540.793L118.707 542.207Z" fill="url(#paint48_linear_3672_283)"/>
<path d="M63.5 472L64.2071 472.707L63.9142 473H63.5V472ZM4.16667 472C4.16667 469.054 6.55448 466.667 9.5 466.667C12.4455 466.667 14.8333 469.054 14.8333 472C14.8333 474.946 12.4455 477.333 9.5 477.333C6.55448 477.333 4.16667 474.946 4.16667 472ZM101.707 435.207L64.2071 472.707L62.7929 471.293L100.293 433.793L101.707 435.207ZM63.5 473H9.5V471H63.5V473Z" fill="url(#paint49_linear_3672_283)"/>
<path d="M60 464.5L60.7071 465.207L60.4142 465.5H60V464.5ZM38.5 464.5V465.5H38.0858L37.7929 465.207L38.5 464.5ZM23.1667 454.5C23.1667 451.554 25.5545 449.167 28.5 449.167C31.4455 449.167 33.8333 451.554 33.8333 454.5C33.8333 457.446 31.4455 459.833 28.5 459.833C25.5545 459.833 23.1667 457.446 23.1667 454.5ZM90.2071 435.707L60.7071 465.207L59.2929 463.793L88.7929 434.293L90.2071 435.707ZM60 465.5H38.5V463.5H60V465.5ZM37.7929 465.207L27.7929 455.207L29.2071 453.793L39.2071 463.793L37.7929 465.207Z" fill="url(#paint50_linear_3672_283)"/>
<path d="M111.5 449.5V448.5H111.902L112.193 448.779L111.5 449.5ZM97 449.5L96.299 448.787L96.5908 448.5H97V449.5ZM67.5 478.5L68.201 479.213L67.9212 479.488L67.529 479.5L67.5 478.5ZM33 479.5L32.1679 478.945L32.4546 478.515L32.971 478.5L33 479.5ZM22.6667 487C22.6667 484.054 25.0545 481.667 28 481.667C30.9455 481.667 33.3333 484.054 33.3333 487C33.3333 489.946 30.9455 492.333 28 492.333C25.0545 492.333 22.6667 489.946 22.6667 487ZM123.307 462.221L110.807 450.221L112.193 448.779L124.693 460.779L123.307 462.221ZM111.5 450.5H97V448.5H111.5V450.5ZM97.701 450.213L68.201 479.213L66.799 477.787L96.299 448.787L97.701 450.213ZM67.529 479.5L33.029 480.5L32.971 478.5L67.471 477.5L67.529 479.5ZM33.8321 480.055L28.8321 487.555L27.1679 486.445L32.1679 478.945L33.8321 480.055Z" fill="url(#paint51_linear_3672_283)"/>
<path d="M112.5 434V433H112.919L113.213 433.299L112.5 434ZM60.1667 434C60.1667 431.054 62.5545 428.667 65.5 428.667C68.4455 428.667 70.8333 431.054 70.8333 434C70.8333 436.946 68.4455 439.333 65.5 439.333C62.5545 439.333 60.1667 436.946 60.1667 434ZM139.787 463.201L111.787 434.701L113.213 433.299L141.213 461.799L139.787 463.201ZM112.5 435H65.5V433H112.5V435Z" fill="url(#paint52_linear_3672_283)"/>
<path d="M166.5 527.5L165.824 526.763L166.111 526.5H166.5V527.5ZM160.5 533L161.176 533.737L160.889 534H160.5V533ZM119 533V534H118.552L118.254 533.666L119 533ZM106.5 519L105.887 518.21L106.624 517.638L107.246 518.334L106.5 519ZM47.6667 560.5C47.6667 557.554 50.0545 555.167 53 555.167C55.9455 555.167 58.3333 557.554 58.3333 560.5C58.3333 563.446 55.9455 565.833 53 565.833C50.0545 565.833 47.6667 563.446 47.6667 560.5ZM187.5 528.5H166.5V526.5H187.5V528.5ZM167.176 528.237L161.176 533.737L159.824 532.263L165.824 526.763L167.176 528.237ZM160.5 534H119V532H160.5V534ZM118.254 533.666L105.754 519.666L107.246 518.334L119.746 532.334L118.254 533.666ZM107.113 519.79L53.6129 561.29L52.3871 559.71L105.887 518.21L107.113 519.79Z" fill="url(#paint53_linear_3672_283)"/>
<path d="M362 680H361V679.554L361.332 679.256L362 680ZM356.667 742.5C356.667 739.554 359.054 737.167 362 737.167C364.946 737.167 367.333 739.554 367.333 742.5C367.333 745.446 364.946 747.833 362 747.833C359.054 747.833 356.667 745.446 356.667 742.5ZM425.668 624.244L362.668 680.744L361.332 679.256L424.332 622.756L425.668 624.244ZM363 680V742.5H361V680H363Z" fill="url(#paint54_linear_3672_283)"/>
<path d="M333.5 598H332.5V597.579L332.801 597.284L333.5 598ZM333.5 638H334.5V638.379L334.249 638.662L333.5 638ZM303 672.5L303.749 673.162L303.451 673.5H303V672.5ZM285.5 672.5L284.784 671.802L285.079 671.5H285.5V672.5ZM265.5 693H264.5V692.593L264.784 692.302L265.5 693ZM265.5 723H266.5V723.406L266.217 723.697L265.5 723ZM243.167 740.5C243.167 737.554 245.554 735.167 248.5 735.167C251.446 735.167 253.833 737.554 253.833 740.5C253.833 743.446 251.446 745.833 248.5 745.833C245.554 745.833 243.167 743.446 243.167 740.5ZM376.199 557.716L334.199 598.716L332.801 597.284L374.801 556.284L376.199 557.716ZM334.5 598V638H332.5V598H334.5ZM334.249 638.662L303.749 673.162L302.251 671.838L332.751 637.338L334.249 638.662ZM303 673.5H285.5V671.5H303V673.5ZM286.216 673.198L266.216 693.698L264.784 692.302L284.784 671.802L286.216 673.198ZM266.5 693V723H264.5V693H266.5ZM266.217 723.697L249.217 741.197L247.783 739.803L264.783 722.303L266.217 723.697Z" fill="url(#paint55_linear_3672_283)"/>
<path d="M377.5 545H376.5V544.54L376.85 544.24L377.5 545ZM377.5 601.5H378.5V601.851L378.281 602.125L377.5 601.5ZM368.167 606.5C368.167 603.554 370.554 601.167 373.5 601.167C376.446 601.167 378.833 603.554 378.833 606.5C378.833 609.446 376.446 611.833 373.5 611.833C370.554 611.833 368.167 609.446 368.167 606.5ZM426.65 504.26L378.15 545.76L376.85 544.24L425.35 502.74L426.65 504.26ZM378.5 545V601.5H376.5V545H378.5ZM378.281 602.125L374.281 607.125L372.719 605.875L376.719 600.875L378.281 602.125Z" fill="url(#paint56_linear_3672_283)"/>
<path d="M325.5 424.5L324.793 423.793L325.086 423.5H325.5V424.5ZM319 431H318V430.586L318.293 430.293L319 431ZM319 441.5H320V441.922L319.697 442.217L319 441.5ZM300.5 459.5L301.197 460.217L300.906 460.5H300.5V459.5ZM271.5 459.5L270.796 458.79L271.089 458.5H271.5V459.5ZM218.5 512L219.204 512.71L218.911 513H218.5V512ZM144.667 512C144.667 509.054 147.054 506.667 150 506.667C152.946 506.667 155.333 509.054 155.333 512C155.333 514.946 152.946 517.333 150 517.333C147.054 517.333 144.667 514.946 144.667 512ZM366 425.5H325.5V423.5H366V425.5ZM326.207 425.207L319.707 431.707L318.293 430.293L324.793 423.793L326.207 425.207ZM320 431V441.5H318V431H320ZM319.697 442.217L301.197 460.217L299.803 458.783L318.303 440.783L319.697 442.217ZM300.5 460.5H271.5V458.5H300.5V460.5ZM272.204 460.21L219.204 512.71L217.796 511.29L270.796 458.79L272.204 460.21ZM218.5 513H150V511H218.5V513Z" fill="url(#paint57_linear_3672_283)"/>
<path d="M380.5 482H381.5V482.414L381.207 482.707L380.5 482ZM371 491.5L371.707 492.207L371.414 492.5H371V491.5ZM356.5 491.5L355.782 490.804L356.076 490.5H356.5V491.5ZM325.5 523.5H324.5V523.095L324.782 522.804L325.5 523.5ZM325.5 551H326.5V551.42L326.2 551.714L325.5 551ZM299 577L299.7 577.714L299.409 578H299V577ZM267.5 577L266.793 576.293L267.086 576H267.5V577ZM246.5 598L245.698 597.403L245.741 597.344L245.793 597.293L246.5 598ZM230.5 619.5L231.302 620.097L231.261 620.153L231.212 620.202L230.5 619.5ZM193.5 657H192.5V656.59L192.788 656.298L193.5 657ZM188.167 703.5C188.167 700.554 190.554 698.167 193.5 698.167C196.446 698.167 198.833 700.554 198.833 703.5C198.833 706.446 196.446 708.833 193.5 708.833C190.554 708.833 188.167 706.446 188.167 703.5ZM381.5 438V482H379.5V438H381.5ZM381.207 482.707L371.707 492.207L370.293 490.793L379.793 481.293L381.207 482.707ZM371 492.5H356.5V490.5H371V492.5ZM357.218 492.196L326.218 524.196L324.782 522.804L355.782 490.804L357.218 492.196ZM326.5 523.5V551H324.5V523.5H326.5ZM326.2 551.714L299.7 577.714L298.3 576.286L324.8 550.286L326.2 551.714ZM299 578H267.5V576H299V578ZM268.207 577.707L247.207 598.707L245.793 597.293L266.793 576.293L268.207 577.707ZM247.302 598.597L231.302 620.097L229.698 618.903L245.698 597.403L247.302 598.597ZM231.212 620.202L194.212 657.702L192.788 656.298L229.788 618.798L231.212 620.202ZM194.5 657V703.5H192.5V657H194.5Z" fill="url(#paint58_linear_3672_283)"/>
<path d="M227.824 395.516L227.147 394.78L227.148 394.779L227.824 395.516ZM207.597 414.147L208.275 414.882L207.966 415.167L207.547 415.145L207.597 414.147ZM170.52 412.27L170.469 413.269L170.091 413.249L169.82 412.984L170.52 412.27ZM148.5 390.68L148.5 389.68L148.908 389.68L149.2 389.966L148.5 390.68ZM119 390.68L119 389.68H119L119 390.68ZM92.8517 390.68L92.8517 389.68H92.8517L92.8517 390.68ZM39.5 390.68L38.8367 389.931L39.1206 389.68L39.5 389.68L39.5 390.68ZM2.38671 416.451C4.55323 414.456 7.92726 414.594 9.92283 416.761C11.9184 418.927 11.7798 422.302 9.61329 424.297C7.44677 426.293 4.07274 426.154 2.07717 423.988C0.0816073 421.821 0.220191 418.447 2.38671 416.451ZM248.676 377.737L228.501 396.252L227.148 394.779L247.324 376.263L248.676 377.737ZM228.502 396.251L208.275 414.882L206.92 413.411L227.147 394.78L228.502 396.251ZM207.547 415.145L170.469 413.269L170.571 411.271L207.648 413.148L207.547 415.145ZM169.82 412.984L147.8 391.394L149.2 389.966L171.22 411.556L169.82 412.984ZM148.5 391.68L119 391.68L119 389.68L148.5 389.68L148.5 391.68ZM119 391.68L92.8517 391.68L92.8517 389.68L119 389.68L119 391.68ZM92.8517 391.68L39.5 391.68L39.5 389.68L92.8517 389.68L92.8517 391.68ZM40.1633 391.428L6.66333 421.123L5.33667 419.626L38.8367 389.931L40.1633 391.428Z" fill="url(#paint59_linear_3672_283)"/>
<path d="M606.176 391.142L606.853 390.407L606.852 390.406L606.176 391.142ZM626.403 409.773L625.725 410.509L626.034 410.793L626.453 410.772L626.403 409.773ZM663.48 407.897L663.531 408.895L663.909 408.876L664.18 408.611L663.48 407.897ZM685.5 386.306L685.5 385.306L685.092 385.306L684.8 385.592L685.5 386.306ZM715 386.306L715 385.306H715L715 386.306ZM741.148 386.306L741.148 385.306H741.148L741.148 386.306ZM794.5 386.306L795.163 385.558L794.879 385.306L794.5 385.306L794.5 386.306ZM831.613 412.078C829.447 410.083 826.073 410.221 824.077 412.388C822.082 414.554 822.22 417.928 824.387 419.924C826.553 421.919 829.927 421.781 831.923 419.614C833.918 417.448 833.78 414.074 831.613 412.078ZM585.324 373.363L605.499 391.879L606.852 390.406L586.676 371.89L585.324 373.363ZM605.498 391.878L625.725 410.509L627.08 409.038L606.853 390.407L605.498 391.878ZM626.453 410.772L663.531 408.895L663.429 406.898L626.352 408.775L626.453 410.772ZM664.18 408.611L686.2 387.02L684.8 385.592L662.78 407.183L664.18 408.611ZM685.5 387.306L715 387.306L715 385.306L685.5 385.306L685.5 387.306ZM715 387.306L741.148 387.306L741.148 385.306L715 385.306L715 387.306ZM741.148 387.306L794.5 387.306L794.5 385.306L741.148 385.306L741.148 387.306ZM793.837 387.055L827.337 416.749L828.663 415.253L795.163 385.558L793.837 387.055Z" fill="url(#paint60_linear_3672_283)"/>
<path d="M299.5 402.5L298.769 401.818L299.065 401.5H299.5V402.5ZM292.5 410L293.231 410.682L292.935 411H292.5V410ZM253.5 410L252.796 409.29L253.089 409H253.5V410ZM200 463L200.704 463.71L200.411 464H200V463ZM112.5 463L111.793 462.293L112.086 462H112.5V463ZM69.6667 500.5C69.6667 497.554 72.0545 495.167 75 495.167C77.9455 495.167 80.3333 497.554 80.3333 500.5C80.3333 503.446 77.9455 505.833 75 505.833C72.0545 505.833 69.6667 503.446 69.6667 500.5ZM364.5 403.5H299.5V401.5H364.5V403.5ZM300.231 403.182L293.231 410.682L291.769 409.318L298.769 401.818L300.231 403.182ZM292.5 411H253.5V409H292.5V411ZM254.204 410.71L200.704 463.71L199.296 462.29L252.796 409.29L254.204 410.71ZM200 464H112.5V462H200V464ZM113.207 463.707L75.7071 501.207L74.2929 499.793L111.793 462.293L113.207 463.707Z" fill="url(#paint61_linear_3672_283)"/>
<path d="M447.833 98C447.833 100.946 445.446 103.333 442.5 103.333C439.554 103.333 437.167 100.946 437.167 98C437.167 95.0545 439.554 92.6667 442.5 92.6667C445.446 92.6667 447.833 95.0545 447.833 98ZM441.5 134V98H443.5V134H441.5Z" fill="url(#paint62_linear_3672_283)"/>
<path d="M507 103H506V102.581L506.299 102.287L507 103ZM535.5 75H536.5V75.4194L536.201 75.7133L535.5 75ZM540.833 65.5C540.833 68.4455 538.446 70.8333 535.5 70.8333C532.554 70.8333 530.167 68.4455 530.167 65.5C530.167 62.5545 532.554 60.1667 535.5 60.1667C538.446 60.1667 540.833 62.5545 540.833 65.5ZM506 142.5V103H508V142.5H506ZM506.299 102.287L534.799 74.2867L536.201 75.7133L507.701 103.713L506.299 102.287ZM534.5 75V65.5H536.5V75H534.5Z" fill="url(#paint63_linear_3672_283)"/>
<path d="M505 56.5H506V56.9264L505.692 57.2216L505 56.5ZM510.333 6C510.333 8.94552 507.946 11.3333 505 11.3333C502.054 11.3333 499.667 8.94552 499.667 6C499.667 3.05448 502.054 0.666667 505 0.666667C507.946 0.666667 510.333 3.05448 510.333 6ZM467.308 91.2784L504.308 55.7784L505.692 57.2216L468.692 92.7216L467.308 91.2784ZM504 56.5V6H506V56.5H504Z" fill="url(#paint64_linear_3672_283)"/>
<path d="M515.5 25L514.81 24.2766L515.099 24H515.5V25ZM529.333 25C529.333 27.9455 526.946 30.3333 524 30.3333C521.054 30.3333 518.667 27.9455 518.667 25C518.667 22.0545 521.054 19.6667 524 19.6667C526.946 19.6667 529.333 22.0545 529.333 25ZM503.81 34.7766L514.81 24.2766L516.19 25.7234L505.19 36.2234L503.81 34.7766ZM515.5 24H524V26H515.5V24Z" fill="url(#paint65_linear_3672_283)"/>
<path d="M496.5 22L497.207 21.2929L497.5 21.5858V22H496.5ZM490.833 11C490.833 13.9455 488.446 16.3333 485.5 16.3333C482.554 16.3333 480.167 13.9455 480.167 11C480.167 8.05448 482.554 5.66667 485.5 5.66667C488.446 5.66667 490.833 8.05448 490.833 11ZM495.5 64V22H497.5V64H495.5ZM495.793 22.7071L484.793 11.7071L486.207 10.2929L497.207 21.2929L495.793 22.7071Z" fill="url(#paint66_linear_3672_283)"/>
<path d="M519 317.5H518V317.076L518.305 316.781L519 317.5ZM534.5 302.5L533.805 301.781L534.095 301.5H534.5V302.5ZM550.833 302.5C550.833 305.446 548.446 307.833 545.5 307.833C542.554 307.833 540.167 305.446 540.167 302.5C540.167 299.554 542.554 297.167 545.5 297.167C548.446 297.167 550.833 299.554 550.833 302.5ZM518 339V317.5H520V339H518ZM518.305 316.781L533.805 301.781L535.195 303.219L519.695 318.219L518.305 316.781ZM534.5 301.5H545.5V303.5H534.5V301.5Z" fill="url(#paint67_linear_3672_283)"/>
<path d="M623 184.5L623.711 185.204L623.417 185.5H623V184.5ZM673 134L672.289 133.296L672.583 133H673V134ZM703.833 134C703.833 136.946 701.446 139.333 698.5 139.333C695.554 139.333 693.167 136.946 693.167 134C693.167 131.054 695.554 128.667 698.5 128.667C701.446 128.667 703.833 131.054 703.833 134ZM589.5 183.5H623V185.5H589.5V183.5ZM622.289 183.796L672.289 133.296L673.711 134.704L623.711 185.204L622.289 183.796ZM673 133H698.5V135H673V133Z" fill="url(#paint68_linear_3672_283)"/>
<path d="M526.5 193.5H525.5V193.092L525.785 192.801L526.5 193.5ZM549 170.5L548.285 169.801L548.579 169.5H549V170.5ZM568.5 170.5L569.207 171.207L568.914 171.5H568.5V170.5ZM595.5 143.5H596.5V143.914L596.207 144.207L595.5 143.5ZM600.833 138C600.833 140.946 598.446 143.333 595.5 143.333C592.554 143.333 590.167 140.946 590.167 138C590.167 135.054 592.554 132.667 595.5 132.667C598.446 132.667 600.833 135.054 600.833 138ZM525.5 217.5V193.5H527.5V217.5H525.5ZM525.785 192.801L548.285 169.801L549.715 171.199L527.215 194.199L525.785 192.801ZM549 169.5H568.5V171.5H549V169.5ZM567.793 169.793L594.793 142.793L596.207 144.207L569.207 171.207L567.793 169.793ZM594.5 143.5V138H596.5V143.5H594.5Z" fill="url(#paint69_linear_3672_283)"/>
<path d="M519 189H518V188.596L518.281 188.305L519 189ZM547 160L546.281 159.305L546.575 159H547V160ZM564 160L564.745 160.667L564.447 161H564V160ZM572.5 150.5H573.5V150.882L573.245 151.167L572.5 150.5ZM577.833 148C577.833 150.946 575.446 153.333 572.5 153.333C569.554 153.333 567.167 150.946 567.167 148C567.167 145.054 569.554 142.667 572.5 142.667C575.446 142.667 577.833 145.054 577.833 148ZM518 222.5V189H520V222.5H518ZM518.281 188.305L546.281 159.305L547.719 160.695L519.719 189.695L518.281 188.305ZM547 159H564V161H547V159ZM563.255 159.333L571.755 149.833L573.245 151.167L564.745 160.667L563.255 159.333ZM571.5 150.5V148H573.5V150.5H571.5Z" fill="url(#paint70_linear_3672_283)"/>
<path d="M512.5 181.5H511.5V181.09L511.788 180.798L512.5 181.5ZM550.333 148.5C550.333 151.446 547.946 153.833 545 153.833C542.054 153.833 539.667 151.446 539.667 148.5C539.667 145.554 542.054 143.167 545 143.167C547.946 143.167 550.333 145.554 550.333 148.5ZM511.5 230V181.5H513.5V230H511.5ZM511.788 180.798L544.288 147.798L545.712 149.202L513.212 182.202L511.788 180.798Z" fill="url(#paint71_linear_3672_283)"/>
<path d="M680.5 240.5H679.5V240.127L679.744 239.845L680.5 240.5ZM687 233L686.244 232.345L686.543 232H687V233ZM696 233L696.707 233.707L696.414 234H696V233ZM707.5 221.5H708.5V221.914L708.207 222.207L707.5 221.5ZM707.5 209H706.5V208.586L706.793 208.293L707.5 209ZM736 180.5L735.293 179.793L735.586 179.5H736V180.5ZM753.333 180.5C753.333 183.446 750.946 185.833 748 185.833C745.054 185.833 742.667 183.446 742.667 180.5C742.667 177.554 745.054 175.167 748 175.167C750.946 175.167 753.333 177.554 753.333 180.5ZM679.5 251.5V240.5H681.5V251.5H679.5ZM679.744 239.845L686.244 232.345L687.756 233.655L681.256 241.155L679.744 239.845ZM687 232H696V234H687V232ZM695.293 232.293L706.793 220.793L708.207 222.207L696.707 233.707L695.293 232.293ZM706.5 221.5V209H708.5V221.5H706.5ZM706.793 208.293L735.293 179.793L736.707 181.207L708.207 209.707L706.793 208.293ZM736 179.5H748V181.5H736V179.5Z" fill="url(#paint72_linear_3672_283)"/>
<path d="M740.333 159.5C740.333 162.446 737.946 164.833 735 164.833C732.054 164.833 729.667 162.446 729.667 159.5C729.667 156.554 732.054 154.167 735 154.167C737.946 154.167 740.333 156.554 740.333 159.5ZM673.305 217.781L734.305 158.781L735.695 160.219L674.695 219.219L673.305 217.781Z" fill="url(#paint73_linear_3672_283)"/>
<path d="M618 266H617V265.567L617.316 265.27L618 266ZM634 251H635V251.433L634.684 251.73L634 251ZM634 228H633V227.58L633.3 227.286L634 228ZM684 179H685V179.42L684.7 179.714L684 179ZM689.333 172C689.333 174.946 686.946 177.333 684 177.333C681.054 177.333 678.667 174.946 678.667 172C678.667 169.054 681.054 166.667 684 166.667C686.946 166.667 689.333 169.054 689.333 172ZM617 280V266H619V280H617ZM617.316 265.27L633.316 250.27L634.684 251.73L618.684 266.73L617.316 265.27ZM633 251V228H635V251H633ZM633.3 227.286L683.3 178.286L684.7 179.714L634.7 228.714L633.3 227.286ZM683 179V172H685V179H683Z" fill="url(#paint74_linear_3672_283)"/>
<path d="M610 264.5H609V264.099L609.277 263.809L610 264.5ZM621 253H622V253.401L621.723 253.691L621 253ZM626.333 245.5C626.333 248.446 623.946 250.833 621 250.833C618.054 250.833 615.667 248.446 615.667 245.5C615.667 242.554 618.054 240.167 621 240.167C623.946 240.167 626.333 242.554 626.333 245.5ZM609 280V264.5H611V280H609ZM609.277 263.809L620.277 252.309L621.723 253.691L610.723 265.191L609.277 263.809ZM620 253V245.5H622V253H620Z" fill="url(#paint75_linear_3672_283)"/>
<path d="M586.5 290.5H585.5V290.096L585.781 289.805L586.5 290.5ZM601 275.5H602V275.904L601.719 276.195L601 275.5ZM606.333 259.5C606.333 262.446 603.946 264.833 601 264.833C598.054 264.833 595.667 262.446 595.667 259.5C595.667 256.554 598.054 254.167 601 254.167C603.946 254.167 606.333 256.554 606.333 259.5ZM585.5 302.5V290.5H587.5V302.5H585.5ZM585.781 289.805L600.281 274.805L601.719 276.195L587.219 291.195L585.781 289.805ZM600 275.5V259.5H602V275.5H600Z" fill="url(#paint76_linear_3672_283)"/>
<path d="M725.5 284L726.092 284.806L725.828 285H725.5V284ZM772.333 253.5C772.333 256.446 769.946 258.833 767 258.833C764.054 258.833 761.667 256.446 761.667 253.5C761.667 250.554 764.054 248.167 767 248.167C769.946 248.167 772.333 250.554 772.333 253.5ZM687.5 283H725.5V285H687.5V283ZM724.908 283.194L766.408 252.694L767.592 254.306L726.092 284.806L724.908 283.194Z" fill="url(#paint77_linear_3672_283)"/>
<path d="M508.5 295.5L509.201 296.213L508.909 296.5H508.5V295.5ZM542.333 267.5C542.333 270.446 539.946 272.833 537 272.833C534.054 272.833 531.667 270.446 531.667 267.5C531.667 264.554 534.054 262.167 537 262.167C539.946 262.167 542.333 264.554 542.333 267.5ZM478.5 294.5H508.5V296.5H478.5V294.5ZM507.799 294.787L536.299 266.787L537.701 268.213L509.201 296.213L507.799 294.787Z" fill="url(#paint78_linear_3672_283)"/>
<path d="M655 252H656V252.403L655.72 252.694L655 252ZM655 239.5H654V239.103L654.272 238.814L655 239.5ZM676.833 222C676.833 224.946 674.446 227.333 671.5 227.333C668.554 227.333 666.167 224.946 666.167 222C666.167 219.054 668.554 216.667 671.5 216.667C674.446 216.667 676.833 219.054 676.833 222ZM627.78 278.806L654.28 251.306L655.72 252.694L629.22 280.194L627.78 278.806ZM654 252V239.5H656V252H654ZM654.272 238.814L670.772 221.314L672.228 222.686L655.728 240.186L654.272 238.814Z" fill="url(#paint79_linear_3672_283)"/>
<path d="M711 251.5L711.707 252.207L711.414 252.5H711V251.5ZM737.833 230C737.833 232.946 735.446 235.333 732.5 235.333C729.554 235.333 727.167 232.946 727.167 230C727.167 227.054 729.554 224.667 732.5 224.667C735.446 224.667 737.833 227.054 737.833 230ZM654.5 250.5H711V252.5H654.5V250.5ZM710.293 250.793L731.793 229.293L733.207 230.707L711.707 252.207L710.293 250.793Z" fill="url(#paint80_linear_3672_283)"/>
<path d="M765.5 321L764.793 320.293L765.086 320H765.5V321ZM824.833 321C824.833 323.946 822.446 326.333 819.5 326.333C816.554 326.333 814.167 323.946 814.167 321C814.167 318.054 816.554 315.667 819.5 315.667C822.446 315.667 824.833 318.054 824.833 321ZM727.293 357.793L764.793 320.293L766.207 321.707L728.707 359.207L727.293 357.793ZM765.5 320H819.5V322H765.5V320Z" fill="url(#paint81_linear_3672_283)"/>
<path d="M769 328.5L768.293 327.793L768.586 327.5H769V328.5ZM790.5 328.5V327.5H790.914L791.207 327.793L790.5 328.5ZM805.833 338.5C805.833 341.446 803.446 343.833 800.5 343.833C797.554 343.833 795.167 341.446 795.167 338.5C795.167 335.554 797.554 333.167 800.5 333.167C803.446 333.167 805.833 335.554 805.833 338.5ZM738.793 357.293L768.293 327.793L769.707 329.207L740.207 358.707L738.793 357.293ZM769 327.5H790.5V329.5H769V327.5ZM791.207 327.793L801.207 337.793L799.793 339.207L789.793 329.207L791.207 327.793Z" fill="url(#paint82_linear_3672_283)"/>
<path d="M717.5 343.5V344.5H717.098L716.807 344.221L717.5 343.5ZM732 343.5L732.701 344.213L732.409 344.5H732V343.5ZM761.5 314.5L760.799 313.787L761.079 313.512L761.471 313.5L761.5 314.5ZM796 313.5L796.832 314.055L796.545 314.485L796.029 314.5L796 313.5ZM806.333 306C806.333 308.946 803.946 311.333 801 311.333C798.054 311.333 795.667 308.946 795.667 306C795.667 303.054 798.054 300.667 801 300.667C803.946 300.667 806.333 303.054 806.333 306ZM705.693 330.779L718.193 342.779L716.807 344.221L704.307 332.221L705.693 330.779ZM717.5 342.5H732V344.5H717.5V342.5ZM731.299 342.787L760.799 313.787L762.201 315.213L732.701 344.213L731.299 342.787ZM761.471 313.5L795.971 312.5L796.029 314.5L761.529 315.5L761.471 313.5ZM795.168 312.945L800.168 305.445L801.832 306.555L796.832 314.055L795.168 312.945Z" fill="url(#paint83_linear_3672_283)"/>
<path d="M716.5 359V360H716.081L715.787 359.701L716.5 359ZM768.833 359C768.833 361.946 766.446 364.333 763.5 364.333C760.554 364.333 758.167 361.946 758.167 359C758.167 356.054 760.554 353.667 763.5 353.667C766.446 353.667 768.833 356.054 768.833 359ZM689.213 329.799L717.213 358.299L715.787 359.701L687.787 331.201L689.213 329.799ZM716.5 358H763.5V360H716.5V358Z" fill="url(#paint84_linear_3672_283)"/>
<path d="M662.5 265.5L663.176 266.237L662.889 266.5H662.5V265.5ZM668.5 260L667.824 259.263L668.111 259H668.5V260ZM710 260V259H710.448L710.746 259.334L710 260ZM722.5 274L723.113 274.79L722.376 275.362L721.754 274.666L722.5 274ZM781.333 232.5C781.333 235.446 778.946 237.833 776 237.833C773.054 237.833 770.667 235.446 770.667 232.5C770.667 229.554 773.054 227.167 776 227.167C778.946 227.167 781.333 229.554 781.333 232.5ZM641.5 264.5H662.5V266.5H641.5V264.5ZM661.824 264.763L667.824 259.263L669.176 260.737L663.176 266.237L661.824 264.763ZM668.5 259H710V261H668.5V259ZM710.746 259.334L723.246 273.334L721.754 274.666L709.254 260.666L710.746 259.334ZM721.887 273.21L775.387 231.71L776.613 233.29L723.113 274.79L721.887 273.21Z" fill="url(#paint85_linear_3672_283)"/>
<path d="M467 113H468V113.422L467.698 113.716L467 113ZM472.333 50.5C472.333 53.4455 469.946 55.8333 467 55.8333C464.054 55.8333 461.667 53.4455 461.667 50.5C461.667 47.5545 464.054 45.1667 467 45.1667C469.946 45.1667 472.333 47.5545 472.333 50.5ZM426.802 150.784L466.302 112.284L467.698 113.716L428.198 152.216L426.802 150.784ZM466 113V50.5H468V113H466Z" fill="url(#paint86_linear_3672_283)"/>
<path d="M495.5 195H496.5V195.421L496.199 195.716L495.5 195ZM495.5 155H494.5V154.621L494.751 154.338L495.5 155ZM526 120.5L525.251 119.838L525.549 119.5H526V120.5ZM543.5 120.5L544.216 121.198L543.921 121.5H543.5V120.5ZM563.5 100H564.5V100.407L564.216 100.698L563.5 100ZM563.5 70H562.5V69.5943L562.783 69.3032L563.5 70ZM585.833 52.5C585.833 55.4455 583.446 57.8333 580.5 57.8333C577.554 57.8333 575.167 55.4455 575.167 52.5C575.167 49.5545 577.554 47.1667 580.5 47.1667C583.446 47.1667 585.833 49.5545 585.833 52.5ZM452.801 235.284L494.801 194.284L496.199 195.716L454.199 236.716L452.801 235.284ZM494.5 195V155H496.5V195H494.5ZM494.751 154.338L525.251 119.838L526.749 121.162L496.249 155.662L494.751 154.338ZM526 119.5H543.5V121.5H526V119.5ZM542.784 119.802L562.784 99.3017L564.216 100.698L544.216 121.198L542.784 119.802ZM562.5 100V70H564.5V100H562.5ZM562.783 69.3032L579.783 51.8032L581.217 53.1968L564.217 70.6968L562.783 69.3032Z" fill="url(#paint87_linear_3672_283)"/>
<path d="M451.5 248H452.5V248.42L452.2 248.715L451.5 248ZM451.5 191.5H450.5V191.149L450.719 190.875L451.5 191.5ZM460.833 186.5C460.833 189.446 458.446 191.833 455.5 191.833C452.554 191.833 450.167 189.446 450.167 186.5C450.167 183.554 452.554 181.167 455.5 181.167C458.446 181.167 460.833 183.554 460.833 186.5ZM426.8 270.785L450.8 247.285L452.2 248.715L428.2 272.215L426.8 270.785ZM450.5 248V191.5H452.5V248H450.5ZM450.719 190.875L454.719 185.875L456.281 187.125L452.281 192.125L450.719 190.875Z" fill="url(#paint88_linear_3672_283)"/>
<path d="M427 139L427.693 138.279L428 138.574V139H427ZM401 114L400.307 114.721L400 114.426V114H401ZM401 87.5H400V87.0914L400.286 86.7997L401 87.5ZM427 61H428V61.4086L427.714 61.7003L427 61ZM432.333 12C432.333 14.9455 429.946 17.3333 427 17.3333C424.054 17.3333 421.667 14.9455 421.667 12C421.667 9.05448 424.054 6.66667 427 6.66667C429.946 6.66667 432.333 9.05448 432.333 12ZM426 354V272H428V354H426ZM426 272V139H428V272H426ZM426.307 139.721L400.307 114.721L401.693 113.279L427.693 138.279L426.307 139.721ZM400 114V87.5H402V114H400ZM400.286 86.7997L426.286 60.2997L427.714 61.7003L401.714 88.2003L400.286 86.7997ZM426 61V12H428V61H426Z" fill="url(#paint89_linear_3672_283)"/>
<path d="M503.5 368.5L504.207 369.207L503.914 369.5H503.5V368.5ZM510 362H511V362.414L510.707 362.707L510 362ZM510 351.5H509V351.078L509.303 350.783L510 351.5ZM528.5 333.5L527.803 332.783L528.094 332.5H528.5V333.5ZM557.5 333.5L558.204 334.21L557.911 334.5H557.5V333.5ZM610.5 281L609.796 280.29L610.089 280H610.5V281ZM684.333 281C684.333 283.946 681.946 286.333 679 286.333C676.054 286.333 673.667 283.946 673.667 281C673.667 278.054 676.054 275.667 679 275.667C681.946 275.667 684.333 278.054 684.333 281ZM463 367.5H503.5V369.5H463V367.5ZM502.793 367.793L509.293 361.293L510.707 362.707L504.207 369.207L502.793 367.793ZM509 362V351.5H511V362H509ZM509.303 350.783L527.803 332.783L529.197 334.217L510.697 352.217L509.303 350.783ZM528.5 332.5H557.5V334.5H528.5V332.5ZM556.796 332.79L609.796 280.29L611.204 281.71L558.204 334.21L556.796 332.79ZM610.5 280H679V282H610.5V280Z" fill="url(#paint90_linear_3672_283)"/>
<path d="M448.5 311H447.5V310.586L447.793 310.293L448.5 311ZM458 301.5L457.293 300.793L457.586 300.5H458V301.5ZM472.5 301.5L473.218 302.196L472.924 302.5H472.5V301.5ZM503.5 269.5H504.5V269.905L504.218 270.196L503.5 269.5ZM503.5 242H502.5V241.58L502.8 241.286L503.5 242ZM530 216L529.3 215.286L529.591 215H530V216ZM561.5 216L562.207 216.707L561.914 217H561.5V216ZM582.5 195L583.302 195.597L583.259 195.656L583.207 195.707L582.5 195ZM598.5 173.5L597.698 172.903L597.739 172.847L597.788 172.798L598.5 173.5ZM635.5 136H636.5V136.41L636.212 136.702L635.5 136ZM640.833 89.5C640.833 92.4455 638.446 94.8333 635.5 94.8333C632.554 94.8333 630.167 92.4455 630.167 89.5C630.167 86.5545 632.554 84.1667 635.5 84.1667C638.446 84.1667 640.833 86.5545 640.833 89.5ZM447.5 355V311H449.5V355H447.5ZM447.793 310.293L457.293 300.793L458.707 302.207L449.207 311.707L447.793 310.293ZM458 300.5H472.5V302.5H458V300.5ZM471.782 300.804L502.782 268.804L504.218 270.196L473.218 302.196L471.782 300.804ZM502.5 269.5V242H504.5V269.5H502.5ZM502.8 241.286L529.3 215.286L530.7 216.714L504.2 242.714L502.8 241.286ZM530 215H561.5V217H530V215ZM560.793 215.293L581.793 194.293L583.207 195.707L562.207 216.707L560.793 215.293ZM581.698 194.403L597.698 172.903L599.302 174.097L583.302 195.597L581.698 194.403ZM597.788 172.798L634.788 135.298L636.212 136.702L599.212 174.202L597.788 172.798ZM634.5 136V89.5H636.5V136H634.5Z" fill="url(#paint91_linear_3672_283)"/>
<path d="M529.5 390.5L530.231 391.182L529.935 391.5H529.5V390.5ZM536.5 383L535.769 382.318L536.065 382H536.5V383ZM575.5 383L576.204 383.71L575.911 384H575.5V383ZM629 330L628.296 329.29L628.589 329H629V330ZM716.5 330L717.207 330.707L716.914 331H716.5V330ZM759.333 292.5C759.333 295.446 756.946 297.833 754 297.833C751.054 297.833 748.667 295.446 748.667 292.5C748.667 289.554 751.054 287.167 754 287.167C756.946 287.167 759.333 289.554 759.333 292.5ZM464.5 389.5H529.5V391.5H464.5V389.5ZM528.769 389.818L535.769 382.318L537.231 383.682L530.231 391.182L528.769 389.818ZM536.5 382H575.5V384H536.5V382ZM574.796 382.29L628.296 329.29L629.704 330.71L576.204 383.71L574.796 382.29ZM629 329H716.5V331H629V329ZM715.793 329.293L753.293 291.793L754.707 293.207L717.207 330.707L715.793 329.293Z" fill="url(#paint92_linear_3672_283)"/>
<path d="M447.833 695C447.833 692.054 445.446 689.667 442.5 689.667C439.554 689.667 437.167 692.054 437.167 695C437.167 697.946 439.554 700.333 442.5 700.333C445.446 700.333 447.833 697.946 447.833 695ZM441.5 659V695H443.5V659H441.5Z" fill="url(#paint93_linear_3672_283)"/>
<path d="M507 690H506V690.419L506.299 690.713L507 690ZM535.5 718H536.5V717.581L536.201 717.287L535.5 718ZM540.833 727.5C540.833 724.554 538.446 722.167 535.5 722.167C532.554 722.167 530.167 724.554 530.167 727.5C530.167 730.446 532.554 732.833 535.5 732.833C538.446 732.833 540.833 730.446 540.833 727.5ZM506 650.5V690H508V650.5H506ZM506.299 690.713L534.799 718.713L536.201 717.287L507.701 689.287L506.299 690.713ZM534.5 718V727.5H536.5V718H534.5Z" fill="url(#paint94_linear_3672_283)"/>
<path d="M505 736.5H506V736.074L505.692 735.778L505 736.5ZM510.333 787C510.333 784.054 507.946 781.667 505 781.667C502.054 781.667 499.667 784.054 499.667 787C499.667 789.946 502.054 792.333 505 792.333C507.946 792.333 510.333 789.946 510.333 787ZM467.308 701.722L504.308 737.222L505.692 735.778L468.692 700.278L467.308 701.722ZM504 736.5V787H506V736.5H504Z" fill="url(#paint95_linear_3672_283)"/>
<path d="M515.5 768L514.81 768.723L515.099 769H515.5V768ZM529.333 768C529.333 765.054 526.946 762.667 524 762.667C521.054 762.667 518.667 765.054 518.667 768C518.667 770.946 521.054 773.333 524 773.333C526.946 773.333 529.333 770.946 529.333 768ZM503.81 758.223L514.81 768.723L516.19 767.277L505.19 756.777L503.81 758.223ZM515.5 769H524V767H515.5V769Z" fill="url(#paint96_linear_3672_283)"/>
<path d="M496.5 771L497.207 771.707L497.5 771.414V771H496.5ZM490.833 782C490.833 779.054 488.446 776.667 485.5 776.667C482.554 776.667 480.167 779.054 480.167 782C480.167 784.946 482.554 787.333 485.5 787.333C488.446 787.333 490.833 784.946 490.833 782ZM495.5 729V771H497.5V729H495.5ZM495.793 770.293L484.793 781.293L486.207 782.707L497.207 771.707L495.793 770.293Z" fill="url(#paint97_linear_3672_283)"/>
<path d="M519 475.5H518V475.924L518.305 476.219L519 475.5ZM534.5 490.5L533.805 491.219L534.095 491.5H534.5V490.5ZM550.833 490.5C550.833 487.554 548.446 485.167 545.5 485.167C542.554 485.167 540.167 487.554 540.167 490.5C540.167 493.446 542.554 495.833 545.5 495.833C548.446 495.833 550.833 493.446 550.833 490.5ZM518 454V475.5H520V454H518ZM518.305 476.219L533.805 491.219L535.195 489.781L519.695 474.781L518.305 476.219ZM534.5 491.5H545.5V489.5H534.5V491.5Z" fill="url(#paint98_linear_3672_283)"/>
<path d="M623 608.5L623.711 607.796L623.417 607.5H623V608.5ZM673 659L672.289 659.704L672.583 660H673V659ZM703.833 659C703.833 656.054 701.446 653.667 698.5 653.667C695.554 653.667 693.167 656.054 693.167 659C693.167 661.946 695.554 664.333 698.5 664.333C701.446 664.333 703.833 661.946 703.833 659ZM589.5 609.5H623V607.5H589.5V609.5ZM622.289 609.204L672.289 659.704L673.711 658.296L623.711 607.796L622.289 609.204ZM673 660H698.5V658H673V660Z" fill="url(#paint99_linear_3672_283)"/>
<path d="M526.5 599.5H525.5V599.908L525.785 600.199L526.5 599.5ZM549 622.5L548.285 623.199L548.579 623.5H549V622.5ZM568.5 622.5L569.207 621.793L568.914 621.5H568.5V622.5ZM595.5 649.5H596.5V649.086L596.207 648.793L595.5 649.5ZM600.833 655C600.833 652.054 598.446 649.667 595.5 649.667C592.554 649.667 590.167 652.054 590.167 655C590.167 657.946 592.554 660.333 595.5 660.333C598.446 660.333 600.833 657.946 600.833 655ZM525.5 575.5V599.5H527.5V575.5H525.5ZM525.785 600.199L548.285 623.199L549.715 621.801L527.215 598.801L525.785 600.199ZM549 623.5H568.5V621.5H549V623.5ZM567.793 623.207L594.793 650.207L596.207 648.793L569.207 621.793L567.793 623.207ZM594.5 649.5V655H596.5V649.5H594.5Z" fill="url(#paint100_linear_3672_283)"/>
<path d="M519 604H518V604.404L518.281 604.695L519 604ZM547 633L546.281 633.695L546.575 634H547V633ZM564 633L564.745 632.333L564.447 632H564V633ZM572.5 642.5H573.5V642.118L573.245 641.833L572.5 642.5ZM577.833 645C577.833 642.054 575.446 639.667 572.5 639.667C569.554 639.667 567.167 642.054 567.167 645C567.167 647.946 569.554 650.333 572.5 650.333C575.446 650.333 577.833 647.946 577.833 645ZM518 570.5V604H520V570.5H518ZM518.281 604.695L546.281 633.695L547.719 632.305L519.719 603.305L518.281 604.695ZM547 634H564V632H547V634ZM563.255 633.667L571.755 643.167L573.245 641.833L564.745 632.333L563.255 633.667ZM571.5 642.5V645H573.5V642.5H571.5Z" fill="url(#paint101_linear_3672_283)"/>
<path d="M512.5 611.5H511.5V611.91L511.788 612.202L512.5 611.5ZM550.333 644.5C550.333 641.554 547.946 639.167 545 639.167C542.054 639.167 539.667 641.554 539.667 644.5C539.667 647.446 542.054 649.833 545 649.833C547.946 649.833 550.333 647.446 550.333 644.5ZM511.5 563V611.5H513.5V563H511.5ZM511.788 612.202L544.288 645.202L545.712 643.798L513.212 610.798L511.788 612.202Z" fill="url(#paint102_linear_3672_283)"/>
<path d="M680.5 552.5H679.5V552.873L679.744 553.155L680.5 552.5ZM687 560L686.244 560.655L686.543 561H687V560ZM696 560L696.707 559.293L696.414 559H696V560ZM707.5 571.5H708.5V571.086L708.207 570.793L707.5 571.5ZM707.5 584H706.5V584.414L706.793 584.707L707.5 584ZM736 612.5L735.293 613.207L735.586 613.5H736V612.5ZM753.333 612.5C753.333 609.554 750.946 607.167 748 607.167C745.054 607.167 742.667 609.554 742.667 612.5C742.667 615.446 745.054 617.833 748 617.833C750.946 617.833 753.333 615.446 753.333 612.5ZM679.5 541.5V552.5H681.5V541.5H679.5ZM679.744 553.155L686.244 560.655L687.756 559.345L681.256 551.845L679.744 553.155ZM687 561H696V559H687V561ZM695.293 560.707L706.793 572.207L708.207 570.793L696.707 559.293L695.293 560.707ZM706.5 571.5V584H708.5V571.5H706.5ZM706.793 584.707L735.293 613.207L736.707 611.793L708.207 583.293L706.793 584.707ZM736 613.5H748V611.5H736V613.5Z" fill="url(#paint103_linear_3672_283)"/>
<path d="M740.333 633.5C740.333 630.554 737.946 628.167 735 628.167C732.054 628.167 729.667 630.554 729.667 633.5C729.667 636.446 732.054 638.833 735 638.833C737.946 638.833 740.333 636.446 740.333 633.5ZM673.305 575.219L734.305 634.219L735.695 632.781L674.695 573.781L673.305 575.219Z" fill="url(#paint104_linear_3672_283)"/>
<path d="M618 527H617V527.433L617.316 527.73L618 527ZM634 542H635V541.567L634.684 541.27L634 542ZM634 565H633V565.42L633.3 565.714L634 565ZM684 614H685V613.58L684.7 613.286L684 614ZM689.333 621C689.333 618.054 686.946 615.667 684 615.667C681.054 615.667 678.667 618.054 678.667 621C678.667 623.946 681.054 626.333 684 626.333C686.946 626.333 689.333 623.946 689.333 621ZM617 513V527H619V513H617ZM617.316 527.73L633.316 542.73L634.684 541.27L618.684 526.27L617.316 527.73ZM633 542V565H635V542H633ZM633.3 565.714L683.3 614.714L684.7 613.286L634.7 564.286L633.3 565.714ZM683 614V621H685V614H683Z" fill="url(#paint105_linear_3672_283)"/>
<path d="M610 528.5H609V528.901L609.277 529.191L610 528.5ZM621 540H622V539.599L621.723 539.309L621 540ZM626.333 547.5C626.333 544.554 623.946 542.167 621 542.167C618.054 542.167 615.667 544.554 615.667 547.5C615.667 550.446 618.054 552.833 621 552.833C623.946 552.833 626.333 550.446 626.333 547.5ZM609 513V528.5H611V513H609ZM609.277 529.191L620.277 540.691L621.723 539.309L610.723 527.809L609.277 529.191ZM620 540V547.5H622V540H620Z" fill="url(#paint106_linear_3672_283)"/>
<path d="M586.5 502.5H585.5V502.904L585.781 503.195L586.5 502.5ZM601 517.5H602V517.096L601.719 516.805L601 517.5ZM606.333 533.5C606.333 530.554 603.946 528.167 601 528.167C598.054 528.167 595.667 530.554 595.667 533.5C595.667 536.446 598.054 538.833 601 538.833C603.946 538.833 606.333 536.446 606.333 533.5ZM585.5 490.5V502.5H587.5V490.5H585.5ZM585.781 503.195L600.281 518.195L601.719 516.805L587.219 501.805L585.781 503.195ZM600 517.5V533.5H602V517.5H600Z" fill="url(#paint107_linear_3672_283)"/>
<path d="M725.5 509L726.092 508.194L725.828 508H725.5V509ZM772.333 539.5C772.333 536.554 769.946 534.167 767 534.167C764.054 534.167 761.667 536.554 761.667 539.5C761.667 542.446 764.054 544.833 767 544.833C769.946 544.833 772.333 542.446 772.333 539.5ZM687.5 510H725.5V508H687.5V510ZM724.908 509.806L766.408 540.306L767.592 538.694L726.092 508.194L724.908 509.806Z" fill="url(#paint108_linear_3672_283)"/>
<path d="M508.5 497.5L509.201 496.787L508.909 496.5H508.5V497.5ZM542.333 525.5C542.333 522.554 539.946 520.167 537 520.167C534.054 520.167 531.667 522.554 531.667 525.5C531.667 528.446 534.054 530.833 537 530.833C539.946 530.833 542.333 528.446 542.333 525.5ZM478.5 498.5H508.5V496.5H478.5V498.5ZM507.799 498.213L536.299 526.213L537.701 524.787L509.201 496.787L507.799 498.213Z" fill="url(#paint109_linear_3672_283)"/>
<path d="M655 541H656V540.597L655.72 540.306L655 541ZM655 553.5H654V553.897L654.272 554.186L655 553.5ZM676.833 571C676.833 568.054 674.446 565.667 671.5 565.667C668.554 565.667 666.167 568.054 666.167 571C666.167 573.946 668.554 576.333 671.5 576.333C674.446 576.333 676.833 573.946 676.833 571ZM627.78 514.194L654.28 541.694L655.72 540.306L629.22 512.806L627.78 514.194ZM654 541V553.5H656V541H654ZM654.272 554.186L670.772 571.686L672.228 570.314L655.728 552.814L654.272 554.186Z" fill="url(#paint110_linear_3672_283)"/>
<path d="M711 541.5L711.707 540.793L711.414 540.5H711V541.5ZM737.833 563C737.833 560.054 735.446 557.667 732.5 557.667C729.554 557.667 727.167 560.054 727.167 563C727.167 565.946 729.554 568.333 732.5 568.333C735.446 568.333 737.833 565.946 737.833 563ZM654.5 542.5H711V540.5H654.5V542.5ZM710.293 542.207L731.793 563.707L733.207 562.293L711.707 540.793L710.293 542.207Z" fill="url(#paint111_linear_3672_283)"/>
<path d="M765.5 472L764.793 472.707L765.086 473H765.5V472ZM824.833 472C824.833 469.054 822.446 466.667 819.5 466.667C816.554 466.667 814.167 469.054 814.167 472C814.167 474.946 816.554 477.333 819.5 477.333C822.446 477.333 824.833 474.946 824.833 472ZM727.293 435.207L764.793 472.707L766.207 471.293L728.707 433.793L727.293 435.207ZM765.5 473H819.5V471H765.5V473Z" fill="url(#paint112_linear_3672_283)"/>
<path d="M769 464.5L768.293 465.207L768.586 465.5H769V464.5ZM790.5 464.5V465.5H790.914L791.207 465.207L790.5 464.5ZM805.833 454.5C805.833 451.554 803.446 449.167 800.5 449.167C797.554 449.167 795.167 451.554 795.167 454.5C795.167 457.446 797.554 459.833 800.5 459.833C803.446 459.833 805.833 457.446 805.833 454.5ZM738.793 435.707L768.293 465.207L769.707 463.793L740.207 434.293L738.793 435.707ZM769 465.5H790.5V463.5H769V465.5ZM791.207 465.207L801.207 455.207L799.793 453.793L789.793 463.793L791.207 465.207Z" fill="url(#paint113_linear_3672_283)"/>
<path d="M717.5 449.5V448.5H717.098L716.807 448.779L717.5 449.5ZM732 449.5L732.701 448.787L732.409 448.5H732V449.5ZM761.5 478.5L760.799 479.213L761.079 479.488L761.471 479.5L761.5 478.5ZM796 479.5L796.832 478.945L796.545 478.515L796.029 478.5L796 479.5ZM806.333 487C806.333 484.054 803.946 481.667 801 481.667C798.054 481.667 795.667 484.054 795.667 487C795.667 489.946 798.054 492.333 801 492.333C803.946 492.333 806.333 489.946 806.333 487ZM705.693 462.221L718.193 450.221L716.807 448.779L704.307 460.779L705.693 462.221ZM717.5 450.5H732V448.5H717.5V450.5ZM731.299 450.213L760.799 479.213L762.201 477.787L732.701 448.787L731.299 450.213ZM761.471 479.5L795.971 480.5L796.029 478.5L761.529 477.5L761.471 479.5ZM795.168 480.055L800.168 487.555L801.832 486.445L796.832 478.945L795.168 480.055Z" fill="url(#paint114_linear_3672_283)"/>
<path d="M716.5 434V433H716.081L715.787 433.299L716.5 434ZM768.833 434C768.833 431.054 766.446 428.667 763.5 428.667C760.554 428.667 758.167 431.054 758.167 434C758.167 436.946 760.554 439.333 763.5 439.333C766.446 439.333 768.833 436.946 768.833 434ZM689.213 463.201L717.213 434.701L715.787 433.299L687.787 461.799L689.213 463.201ZM716.5 435H763.5V433H716.5V435Z" fill="url(#paint115_linear_3672_283)"/>
<path d="M662.5 527.5L663.176 526.763L662.889 526.5H662.5V527.5ZM668.5 533L667.824 533.737L668.111 534H668.5V533ZM710 533V534H710.448L710.746 533.666L710 533ZM722.5 519L723.113 518.21L722.376 517.638L721.754 518.334L722.5 519ZM781.333 560.5C781.333 557.554 778.946 555.167 776 555.167C773.054 555.167 770.667 557.554 770.667 560.5C770.667 563.446 773.054 565.833 776 565.833C778.946 565.833 781.333 563.446 781.333 560.5ZM641.5 528.5H662.5V526.5H641.5V528.5ZM661.824 528.237L667.824 533.737L669.176 532.263L663.176 526.763L661.824 528.237ZM668.5 534H710V532H668.5V534ZM710.746 533.666L723.246 519.666L721.754 518.334L709.254 532.334L710.746 533.666ZM721.887 519.79L775.387 561.29L776.613 559.71L723.113 518.21L721.887 519.79Z" fill="url(#paint116_linear_3672_283)"/>
<path d="M467 680H468V679.578L467.698 679.284L467 680ZM472.333 742.5C472.333 739.554 469.946 737.167 467 737.167C464.054 737.167 461.667 739.554 461.667 742.5C461.667 745.446 464.054 747.833 467 747.833C469.946 747.833 472.333 745.446 472.333 742.5ZM426.802 642.216L466.302 680.716L467.698 679.284L428.198 640.784L426.802 642.216ZM466 680V742.5H468V680H466Z" fill="url(#paint117_linear_3672_283)"/>
<path d="M495.5 598H496.5V597.579L496.199 597.284L495.5 598ZM495.5 638H494.5V638.379L494.751 638.662L495.5 638ZM526 672.5L525.251 673.162L525.549 673.5H526V672.5ZM543.5 672.5L544.216 671.802L543.921 671.5H543.5V672.5ZM563.5 693H564.5V692.593L564.216 692.302L563.5 693ZM563.5 723H562.5V723.406L562.783 723.697L563.5 723ZM585.833 740.5C585.833 737.554 583.446 735.167 580.5 735.167C577.554 735.167 575.167 737.554 575.167 740.5C575.167 743.446 577.554 745.833 580.5 745.833C583.446 745.833 585.833 743.446 585.833 740.5ZM452.801 557.716L494.801 598.716L496.199 597.284L454.199 556.284L452.801 557.716ZM494.5 598V638H496.5V598H494.5ZM494.751 638.662L525.251 673.162L526.749 671.838L496.249 637.338L494.751 638.662ZM526 673.5H543.5V671.5H526V673.5ZM542.784 673.198L562.784 693.698L564.216 692.302L544.216 671.802L542.784 673.198ZM562.5 693V723H564.5V693H562.5ZM562.783 723.697L579.783 741.197L581.217 739.803L564.217 722.303L562.783 723.697Z" fill="url(#paint118_linear_3672_283)"/>
<path d="M451.5 545H452.5V544.58L452.2 544.285L451.5 545ZM451.5 601.5H450.5V601.851L450.719 602.125L451.5 601.5ZM460.833 606.5C460.833 603.554 458.446 601.167 455.5 601.167C452.554 601.167 450.167 603.554 450.167 606.5C450.167 609.446 452.554 611.833 455.5 611.833C458.446 611.833 460.833 609.446 460.833 606.5ZM426.8 522.215L450.8 545.715L452.2 544.285L428.2 520.785L426.8 522.215ZM450.5 545V601.5H452.5V545H450.5ZM450.719 602.125L454.719 607.125L456.281 605.875L452.281 600.875L450.719 602.125Z" fill="url(#paint119_linear_3672_283)"/>
<path d="M427 654L427.693 654.721L428 654.426V654H427ZM401 679L400.307 678.279L400 678.574V679H401ZM401 705.5H400V705.909L400.286 706.2L401 705.5ZM427 732H428V731.591L427.714 731.3L427 732ZM432.333 781C432.333 778.054 429.946 775.667 427 775.667C424.054 775.667 421.667 778.054 421.667 781C421.667 783.946 424.054 786.333 427 786.333C429.946 786.333 432.333 783.946 432.333 781ZM426 439V521H428V439H426ZM426 521V654H428V521H426ZM426.307 653.279L400.307 678.279L401.693 679.721L427.693 654.721L426.307 653.279ZM400 679V705.5H402V679H400ZM400.286 706.2L426.286 732.7L427.714 731.3L401.714 704.8L400.286 706.2ZM426 732V781H428V732H426Z" fill="url(#paint120_linear_3672_283)"/>
<path d="M503.5 424.5L504.207 423.793L503.914 423.5H503.5V424.5ZM510 431H511V430.586L510.707 430.293L510 431ZM510 441.5H509V441.922L509.303 442.217L510 441.5ZM528.5 459.5L527.803 460.217L528.094 460.5H528.5V459.5ZM557.5 459.5L558.204 458.79L557.911 458.5H557.5V459.5ZM610.5 512L609.796 512.71L610.089 513H610.5V512ZM684.333 512C684.333 509.054 681.946 506.667 679 506.667C676.054 506.667 673.667 509.054 673.667 512C673.667 514.946 676.054 517.333 679 517.333C681.946 517.333 684.333 514.946 684.333 512ZM463 425.5H503.5V423.5H463V425.5ZM502.793 425.207L509.293 431.707L510.707 430.293L504.207 423.793L502.793 425.207ZM509 431V441.5H511V431H509ZM509.303 442.217L527.803 460.217L529.197 458.783L510.697 440.783L509.303 442.217ZM528.5 460.5H557.5V458.5H528.5V460.5ZM556.796 460.21L609.796 512.71L611.204 511.29L558.204 458.79L556.796 460.21ZM610.5 513H679V511H610.5V513Z" fill="url(#paint121_linear_3672_283)"/>
<path d="M448.5 482H447.5V482.414L447.793 482.707L448.5 482ZM458 491.5L457.293 492.207L457.586 492.5H458V491.5ZM472.5 491.5L473.218 490.804L472.924 490.5H472.5V491.5ZM503.5 523.5H504.5V523.095L504.218 522.804L503.5 523.5ZM503.5 551H502.5V551.42L502.8 551.714L503.5 551ZM530 577L529.3 577.714L529.591 578H530V577ZM561.5 577L562.207 576.293L561.914 576H561.5V577ZM582.5 598L583.302 597.403L583.259 597.344L583.207 597.293L582.5 598ZM598.5 619.5L597.698 620.097L597.739 620.153L597.788 620.202L598.5 619.5ZM635.5 657H636.5V656.59L636.212 656.298L635.5 657ZM640.833 703.5C640.833 700.554 638.446 698.167 635.5 698.167C632.554 698.167 630.167 700.554 630.167 703.5C630.167 706.446 632.554 708.833 635.5 708.833C638.446 708.833 640.833 706.446 640.833 703.5ZM447.5 438V482H449.5V438H447.5ZM447.793 482.707L457.293 492.207L458.707 490.793L449.207 481.293L447.793 482.707ZM458 492.5H472.5V490.5H458V492.5ZM471.782 492.196L502.782 524.196L504.218 522.804L473.218 490.804L471.782 492.196ZM502.5 523.5V551H504.5V523.5H502.5ZM502.8 551.714L529.3 577.714L530.7 576.286L504.2 550.286L502.8 551.714ZM530 578H561.5V576H530V578ZM560.793 577.707L581.793 598.707L583.207 597.293L562.207 576.293L560.793 577.707ZM581.698 598.597L597.698 620.097L599.302 618.903L583.302 597.403L581.698 598.597ZM597.788 620.202L634.788 657.702L636.212 656.298L599.212 618.798L597.788 620.202ZM634.5 657V703.5H636.5V657H634.5Z" fill="url(#paint122_linear_3672_283)"/>
<path d="M529.5 402.5L530.231 401.818L529.935 401.5H529.5V402.5ZM536.5 410L535.769 410.682L536.065 411H536.5V410ZM575.5 410L576.204 409.29L575.911 409H575.5V410ZM629 463L628.296 463.71L628.589 464H629V463ZM716.5 463L717.207 462.293L716.914 462H716.5V463ZM759.333 500.5C759.333 497.554 756.946 495.167 754 495.167C751.054 495.167 748.667 497.554 748.667 500.5C748.667 503.446 751.054 505.833 754 505.833C756.946 505.833 759.333 503.446 759.333 500.5ZM464.5 403.5H529.5V401.5H464.5V403.5ZM528.769 403.182L535.769 410.682L537.231 409.318L530.231 401.818L528.769 403.182ZM536.5 411H575.5V409H536.5V411ZM574.796 410.71L628.296 463.71L629.704 462.29L576.204 409.29L574.796 410.71ZM629 464H716.5V462H629V464ZM715.793 463.707L753.293 501.207L754.707 499.793L717.207 462.293L715.793 463.707Z" fill="url(#paint123_linear_3672_283)"/>
<defs>
<linearGradient id="paint0_linear_3672_283" x1="387" y1="98" x2="387" y2="134" gradientUnits="userSpaceOnUse">
<stop stop-color="#0C9136"/>
<stop offset="1" stop-color="#181A20"/>
</linearGradient>
<linearGradient id="paint1_linear_3672_283" x1="307.75" y1="65.5" x2="307.75" y2="142.5" gradientUnits="userSpaceOnUse">
<stop stop-color="#0C9136"/>
<stop offset="1" stop-color="#181A20"/>
</linearGradient>
<linearGradient id="paint2_linear_3672_283" x1="342.5" y1="6" x2="342.5" y2="92" gradientUnits="userSpaceOnUse">
<stop stop-color="#0C9136"/>
<stop offset="1" stop-color="#181A20"/>
</linearGradient>
<linearGradient id="paint3_linear_3672_283" x1="314.75" y1="25" x2="314.75" y2="35.5" gradientUnits="userSpaceOnUse">
<stop stop-color="#0C9136"/>
<stop offset="1" stop-color="#181A20"/>
</linearGradient>
<linearGradient id="paint4_linear_3672_283" x1="338" y1="11" x2="338" y2="64" gradientUnits="userSpaceOnUse">
<stop stop-color="#0C9136"/>
<stop offset="1" stop-color="#181A20"/>
</linearGradient>
<linearGradient id="paint5_linear_3672_283" x1="296.75" y1="302.5" x2="296.75" y2="339" gradientUnits="userSpaceOnUse">
<stop stop-color="#0C9136"/>
<stop offset="1" stop-color="#181A20"/>
</linearGradient>
<linearGradient id="paint6_linear_3672_283" x1="185" y1="134" x2="185" y2="184.5" gradientUnits="userSpaceOnUse">
<stop stop-color="#0C9136"/>
<stop offset="1" stop-color="#181A20"/>
</linearGradient>
<linearGradient id="paint7_linear_3672_283" x1="268" y1="138" x2="268" y2="217.5" gradientUnits="userSpaceOnUse">
<stop stop-color="#0C9136"/>
<stop offset="1" stop-color="#181A20"/>
</linearGradient>
<linearGradient id="paint8_linear_3672_283" x1="283.25" y1="148" x2="283.25" y2="222.5" gradientUnits="userSpaceOnUse">
<stop stop-color="#0C9136"/>
<stop offset="1" stop-color="#181A20"/>
</linearGradient>
<linearGradient id="paint9_linear_3672_283" x1="300.25" y1="148.5" x2="300.25" y2="230" gradientUnits="userSpaceOnUse">
<stop stop-color="#0C9136"/>
<stop offset="1" stop-color="#181A20"/>
</linearGradient>
<linearGradient id="paint10_linear_3672_283" x1="114.75" y1="180.5" x2="114.75" y2="251.5" gradientUnits="userSpaceOnUse">
<stop stop-color="#0C9136"/>
<stop offset="1" stop-color="#181A20"/>
</linearGradient>
<linearGradient id="paint11_linear_3672_283" x1="124.5" y1="159.5" x2="124.5" y2="218.5" gradientUnits="userSpaceOnUse">
<stop stop-color="#0C9136"/>
<stop offset="1" stop-color="#181A20"/>
</linearGradient>
<linearGradient id="paint12_linear_3672_283" x1="178" y1="172" x2="178" y2="280" gradientUnits="userSpaceOnUse">
<stop stop-color="#0C9136"/>
<stop offset="1" stop-color="#181A20"/>
</linearGradient>
<linearGradient id="paint13_linear_3672_283" x1="213.5" y1="245.5" x2="213.5" y2="280" gradientUnits="userSpaceOnUse">
<stop stop-color="#0C9136"/>
<stop offset="1" stop-color="#181A20"/>
</linearGradient>
<linearGradient id="paint14_linear_3672_283" x1="235.25" y1="259.5" x2="235.25" y2="302.5" gradientUnits="userSpaceOnUse">
<stop stop-color="#0C9136"/>
<stop offset="1" stop-color="#181A20"/>
</linearGradient>
<linearGradient id="paint15_linear_3672_283" x1="101.75" y1="253.5" x2="101.75" y2="284" gradientUnits="userSpaceOnUse">
<stop stop-color="#0C9136"/>
<stop offset="1" stop-color="#181A20"/>
</linearGradient>
<linearGradient id="paint16_linear_3672_283" x1="321.25" y1="267.5" x2="321.25" y2="295.5" gradientUnits="userSpaceOnUse">
<stop stop-color="#0C9136"/>
<stop offset="1" stop-color="#181A20"/>
</linearGradient>
<linearGradient id="paint17_linear_3672_283" x1="179" y1="222" x2="179" y2="279.5" gradientUnits="userSpaceOnUse">
<stop stop-color="#0C9136"/>
<stop offset="1" stop-color="#181A20"/>
</linearGradient>
<linearGradient id="paint18_linear_3672_283" x1="135.5" y1="230" x2="135.5" y2="251.5" gradientUnits="userSpaceOnUse">
<stop stop-color="#0C9136"/>
<stop offset="1" stop-color="#181A20"/>
</linearGradient>
<linearGradient id="paint19_linear_3672_283" x1="55.25" y1="321" x2="55.25" y2="358.5" gradientUnits="userSpaceOnUse">
<stop stop-color="#0C9136"/>
<stop offset="1" stop-color="#181A20"/>
</linearGradient>
<linearGradient id="paint20_linear_3672_283" x1="59" y1="328.5" x2="59" y2="358" gradientUnits="userSpaceOnUse">
<stop stop-color="#0C9136"/>
<stop offset="1" stop-color="#181A20"/>
</linearGradient>
<linearGradient id="paint21_linear_3672_283" x1="76" y1="306" x2="76" y2="343.5" gradientUnits="userSpaceOnUse">
<stop stop-color="#0C9136"/>
<stop offset="1" stop-color="#181A20"/>
</linearGradient>
<linearGradient id="paint22_linear_3672_283" x1="103" y1="330.5" x2="103" y2="359" gradientUnits="userSpaceOnUse">
<stop stop-color="#0C9136"/>
<stop offset="1" stop-color="#181A20"/>
</linearGradient>
<linearGradient id="paint23_linear_3672_283" x1="120.25" y1="232.5" x2="120.25" y2="274" gradientUnits="userSpaceOnUse">
<stop stop-color="#0C9136"/>
<stop offset="1" stop-color="#181A20"/>
</linearGradient>
<linearGradient id="paint24_linear_3672_283" x1="394" y1="50.5" x2="394" y2="174.5" gradientUnits="userSpaceOnUse">
<stop stop-color="#0C9136"/>
<stop offset="1" stop-color="#181A20"/>
</linearGradient>
<linearGradient id="paint25_linear_3672_283" x1="312" y1="52.5" x2="312" y2="236" gradientUnits="userSpaceOnUse">
<stop stop-color="#0C9136"/>
<stop offset="1" stop-color="#181A20"/>
</linearGradient>
<linearGradient id="paint26_linear_3672_283" x1="399.75" y1="186.5" x2="399.75" y2="297.5" gradientUnits="userSpaceOnUse">
<stop stop-color="#0C9136"/>
<stop offset="1" stop-color="#181A20"/>
</linearGradient>
<linearGradient id="paint27_linear_3672_283" x1="258" y1="281" x2="258" y2="368.5" gradientUnits="userSpaceOnUse">
<stop stop-color="#0C9136"/>
<stop offset="1" stop-color="#181A20"/>
</linearGradient>
<linearGradient id="paint28_linear_3672_283" x1="287" y1="89.5" x2="287" y2="355" gradientUnits="userSpaceOnUse">
<stop stop-color="#0C9136"/>
<stop offset="1" stop-color="#181A20"/>
</linearGradient>
<linearGradient id="paint29_linear_3672_283" x1="219.75" y1="292.5" x2="219.75" y2="390.5" gradientUnits="userSpaceOnUse">
<stop stop-color="#0C9136"/>
<stop offset="1" stop-color="#181A20"/>
</linearGradient>
<linearGradient id="paint30_linear_3672_283" x1="387" y1="695" x2="387" y2="659" gradientUnits="userSpaceOnUse">
<stop stop-color="#0C9136"/>
<stop offset="1" stop-color="#181A20"/>
</linearGradient>
<linearGradient id="paint31_linear_3672_283" x1="307.75" y1="727.5" x2="307.75" y2="650.5" gradientUnits="userSpaceOnUse">
<stop stop-color="#0C9136"/>
<stop offset="1" stop-color="#181A20"/>
</linearGradient>
<linearGradient id="paint32_linear_3672_283" x1="342.5" y1="787" x2="342.5" y2="701" gradientUnits="userSpaceOnUse">
<stop stop-color="#0C9136"/>
<stop offset="1" stop-color="#181A20"/>
</linearGradient>
<linearGradient id="paint33_linear_3672_283" x1="314.75" y1="768" x2="314.75" y2="757.5" gradientUnits="userSpaceOnUse">
<stop stop-color="#0C9136"/>
<stop offset="1" stop-color="#181A20"/>
</linearGradient>
<linearGradient id="paint34_linear_3672_283" x1="338" y1="782" x2="338" y2="729" gradientUnits="userSpaceOnUse">
<stop stop-color="#0C9136"/>
<stop offset="1" stop-color="#181A20"/>
</linearGradient>
<linearGradient id="paint35_linear_3672_283" x1="296.75" y1="490.5" x2="296.75" y2="454" gradientUnits="userSpaceOnUse">
<stop stop-color="#0C9136"/>
<stop offset="1" stop-color="#181A20"/>
</linearGradient>
<linearGradient id="paint36_linear_3672_283" x1="185" y1="659" x2="185" y2="608.5" gradientUnits="userSpaceOnUse">
<stop stop-color="#0C9136"/>
<stop offset="1" stop-color="#181A20"/>
</linearGradient>
<linearGradient id="paint37_linear_3672_283" x1="268" y1="655" x2="268" y2="575.5" gradientUnits="userSpaceOnUse">
<stop stop-color="#0C9136"/>
<stop offset="1" stop-color="#181A20"/>
</linearGradient>
<linearGradient id="paint38_linear_3672_283" x1="283.25" y1="645" x2="283.25" y2="570.5" gradientUnits="userSpaceOnUse">
<stop stop-color="#0C9136"/>
<stop offset="1" stop-color="#181A20"/>
</linearGradient>
<linearGradient id="paint39_linear_3672_283" x1="300.25" y1="644.5" x2="300.25" y2="563" gradientUnits="userSpaceOnUse">
<stop stop-color="#0C9136"/>
<stop offset="1" stop-color="#181A20"/>
</linearGradient>
<linearGradient id="paint40_linear_3672_283" x1="114.75" y1="612.5" x2="114.75" y2="541.5" gradientUnits="userSpaceOnUse">
<stop stop-color="#0C9136"/>
<stop offset="1" stop-color="#181A20"/>
</linearGradient>
<linearGradient id="paint41_linear_3672_283" x1="124.5" y1="633.5" x2="124.5" y2="574.5" gradientUnits="userSpaceOnUse">
<stop stop-color="#0C9136"/>
<stop offset="1" stop-color="#181A20"/>
</linearGradient>
<linearGradient id="paint42_linear_3672_283" x1="178" y1="621" x2="178" y2="513" gradientUnits="userSpaceOnUse">
<stop stop-color="#0C9136"/>
<stop offset="1" stop-color="#181A20"/>
</linearGradient>
<linearGradient id="paint43_linear_3672_283" x1="213.5" y1="547.5" x2="213.5" y2="513" gradientUnits="userSpaceOnUse">
<stop stop-color="#0C9136"/>
<stop offset="1" stop-color="#181A20"/>
</linearGradient>
<linearGradient id="paint44_linear_3672_283" x1="235.25" y1="533.5" x2="235.25" y2="490.5" gradientUnits="userSpaceOnUse">
<stop stop-color="#0C9136"/>
<stop offset="1" stop-color="#181A20"/>
</linearGradient>
<linearGradient id="paint45_linear_3672_283" x1="101.75" y1="539.5" x2="101.75" y2="509" gradientUnits="userSpaceOnUse">
<stop stop-color="#0C9136"/>
<stop offset="1" stop-color="#181A20"/>
</linearGradient>
<linearGradient id="paint46_linear_3672_283" x1="321.25" y1="525.5" x2="321.25" y2="497.5" gradientUnits="userSpaceOnUse">
<stop stop-color="#0C9136"/>
<stop offset="1" stop-color="#181A20"/>
</linearGradient>
<linearGradient id="paint47_linear_3672_283" x1="179" y1="571" x2="179" y2="513.5" gradientUnits="userSpaceOnUse">
<stop stop-color="#0C9136"/>
<stop offset="1" stop-color="#181A20"/>
</linearGradient>
<linearGradient id="paint48_linear_3672_283" x1="135.5" y1="563" x2="135.5" y2="541.5" gradientUnits="userSpaceOnUse">
<stop stop-color="#0C9136"/>
<stop offset="1" stop-color="#181A20"/>
</linearGradient>
<linearGradient id="paint49_linear_3672_283" x1="55.25" y1="472" x2="55.25" y2="434.5" gradientUnits="userSpaceOnUse">
<stop stop-color="#0C9136"/>
<stop offset="1" stop-color="#181A20"/>
</linearGradient>
<linearGradient id="paint50_linear_3672_283" x1="59" y1="464.5" x2="59" y2="435" gradientUnits="userSpaceOnUse">
<stop stop-color="#0C9136"/>
<stop offset="1" stop-color="#181A20"/>
</linearGradient>
<linearGradient id="paint51_linear_3672_283" x1="76" y1="487" x2="76" y2="449.5" gradientUnits="userSpaceOnUse">
<stop stop-color="#0C9136"/>
<stop offset="1" stop-color="#181A20"/>
</linearGradient>
<linearGradient id="paint52_linear_3672_283" x1="103" y1="462.5" x2="103" y2="434" gradientUnits="userSpaceOnUse">
<stop stop-color="#0C9136"/>
<stop offset="1" stop-color="#181A20"/>
</linearGradient>
<linearGradient id="paint53_linear_3672_283" x1="120.25" y1="560.5" x2="120.25" y2="519" gradientUnits="userSpaceOnUse">
<stop stop-color="#0C9136"/>
<stop offset="1" stop-color="#181A20"/>
</linearGradient>
<linearGradient id="paint54_linear_3672_283" x1="393.5" y1="742.5" x2="393.5" y2="623.5" gradientUnits="userSpaceOnUse">
<stop stop-color="#0C9136"/>
<stop offset="1" stop-color="#181A20"/>
</linearGradient>
<linearGradient id="paint55_linear_3672_283" x1="312" y1="740.5" x2="312" y2="557" gradientUnits="userSpaceOnUse">
<stop stop-color="#0C9136"/>
<stop offset="1" stop-color="#181A20"/>
</linearGradient>
<linearGradient id="paint56_linear_3672_283" x1="399.75" y1="606.5" x2="399.75" y2="503.5" gradientUnits="userSpaceOnUse">
<stop stop-color="#0C9136"/>
<stop offset="1" stop-color="#181A20"/>
</linearGradient>
<linearGradient id="paint57_linear_3672_283" x1="258" y1="512" x2="258" y2="424.5" gradientUnits="userSpaceOnUse">
<stop stop-color="#0C9136"/>
<stop offset="1" stop-color="#181A20"/>
</linearGradient>
<linearGradient id="paint58_linear_3672_283" x1="287" y1="703.5" x2="287" y2="438" gradientUnits="userSpaceOnUse">
<stop stop-color="#0C9136"/>
<stop offset="1" stop-color="#181A20"/>
</linearGradient>
<linearGradient id="paint59_linear_3672_283" x1="50.7314" y1="468.938" x2="203.269" y2="328.437" gradientUnits="userSpaceOnUse">
<stop stop-color="#0C9136"/>
<stop offset="1" stop-color="#181A20"/>
</linearGradient>
<linearGradient id="paint60_linear_3672_283" x1="783.269" y1="464.564" x2="630.731" y2="324.063" gradientUnits="userSpaceOnUse">
<stop stop-color="#0C9136"/>
<stop offset="1" stop-color="#181A20"/>
</linearGradient>
<linearGradient id="paint61_linear_3672_283" x1="219.75" y1="500.5" x2="219.75" y2="402.5" gradientUnits="userSpaceOnUse">
<stop stop-color="#0C9136"/>
<stop offset="1" stop-color="#181A20"/>
</linearGradient>
<linearGradient id="paint62_linear_3672_283" x1="442" y1="98" x2="442" y2="134" gradientUnits="userSpaceOnUse">
<stop stop-color="#0C9136"/>
<stop offset="1" stop-color="#181A20"/>
</linearGradient>
<linearGradient id="paint63_linear_3672_283" x1="521.25" y1="65.5" x2="521.25" y2="142.5" gradientUnits="userSpaceOnUse">
<stop stop-color="#0C9136"/>
<stop offset="1" stop-color="#181A20"/>
</linearGradient>
<linearGradient id="paint64_linear_3672_283" x1="486.5" y1="6" x2="486.5" y2="92" gradientUnits="userSpaceOnUse">
<stop stop-color="#0C9136"/>
<stop offset="1" stop-color="#181A20"/>
</linearGradient>
<linearGradient id="paint65_linear_3672_283" x1="514.25" y1="25" x2="514.25" y2="35.5" gradientUnits="userSpaceOnUse">
<stop stop-color="#0C9136"/>
<stop offset="1" stop-color="#181A20"/>
</linearGradient>
<linearGradient id="paint66_linear_3672_283" x1="491" y1="11" x2="491" y2="64" gradientUnits="userSpaceOnUse">
<stop stop-color="#0C9136"/>
<stop offset="1" stop-color="#181A20"/>
</linearGradient>
<linearGradient id="paint67_linear_3672_283" x1="532.25" y1="302.5" x2="532.25" y2="339" gradientUnits="userSpaceOnUse">
<stop stop-color="#0C9136"/>
<stop offset="1" stop-color="#181A20"/>
</linearGradient>
<linearGradient id="paint68_linear_3672_283" x1="644" y1="134" x2="644" y2="184.5" gradientUnits="userSpaceOnUse">
<stop stop-color="#0C9136"/>
<stop offset="1" stop-color="#181A20"/>
</linearGradient>
<linearGradient id="paint69_linear_3672_283" x1="561" y1="138" x2="561" y2="217.5" gradientUnits="userSpaceOnUse">
<stop stop-color="#0C9136"/>
<stop offset="1" stop-color="#181A20"/>
</linearGradient>
<linearGradient id="paint70_linear_3672_283" x1="545.75" y1="148" x2="545.75" y2="222.5" gradientUnits="userSpaceOnUse">
<stop stop-color="#0C9136"/>
<stop offset="1" stop-color="#181A20"/>
</linearGradient>
<linearGradient id="paint71_linear_3672_283" x1="528.75" y1="148.5" x2="528.75" y2="230" gradientUnits="userSpaceOnUse">
<stop stop-color="#0C9136"/>
<stop offset="1" stop-color="#181A20"/>
</linearGradient>
<linearGradient id="paint72_linear_3672_283" x1="714.25" y1="180.5" x2="714.25" y2="251.5" gradientUnits="userSpaceOnUse">
<stop stop-color="#0C9136"/>
<stop offset="1" stop-color="#181A20"/>
</linearGradient>
<linearGradient id="paint73_linear_3672_283" x1="704.5" y1="159.5" x2="704.5" y2="218.5" gradientUnits="userSpaceOnUse">
<stop stop-color="#0C9136"/>
<stop offset="1" stop-color="#181A20"/>
</linearGradient>
<linearGradient id="paint74_linear_3672_283" x1="651" y1="172" x2="651" y2="280" gradientUnits="userSpaceOnUse">
<stop stop-color="#0C9136"/>
<stop offset="1" stop-color="#181A20"/>
</linearGradient>
<linearGradient id="paint75_linear_3672_283" x1="615.5" y1="245.5" x2="615.5" y2="280" gradientUnits="userSpaceOnUse">
<stop stop-color="#0C9136"/>
<stop offset="1" stop-color="#181A20"/>
</linearGradient>
<linearGradient id="paint76_linear_3672_283" x1="593.75" y1="259.5" x2="593.75" y2="302.5" gradientUnits="userSpaceOnUse">
<stop stop-color="#0C9136"/>
<stop offset="1" stop-color="#181A20"/>
</linearGradient>
<linearGradient id="paint77_linear_3672_283" x1="727.25" y1="253.5" x2="727.25" y2="284" gradientUnits="userSpaceOnUse">
<stop stop-color="#0C9136"/>
<stop offset="1" stop-color="#181A20"/>
</linearGradient>
<linearGradient id="paint78_linear_3672_283" x1="507.75" y1="267.5" x2="507.75" y2="295.5" gradientUnits="userSpaceOnUse">
<stop stop-color="#0C9136"/>
<stop offset="1" stop-color="#181A20"/>
</linearGradient>
<linearGradient id="paint79_linear_3672_283" x1="650" y1="222" x2="650" y2="279.5" gradientUnits="userSpaceOnUse">
<stop stop-color="#0C9136"/>
<stop offset="1" stop-color="#181A20"/>
</linearGradient>
<linearGradient id="paint80_linear_3672_283" x1="693.5" y1="230" x2="693.5" y2="251.5" gradientUnits="userSpaceOnUse">
<stop stop-color="#0C9136"/>
<stop offset="1" stop-color="#181A20"/>
</linearGradient>
<linearGradient id="paint81_linear_3672_283" x1="773.75" y1="321" x2="773.75" y2="358.5" gradientUnits="userSpaceOnUse">
<stop stop-color="#0C9136"/>
<stop offset="1" stop-color="#181A20"/>
</linearGradient>
<linearGradient id="paint82_linear_3672_283" x1="770" y1="328.5" x2="770" y2="358" gradientUnits="userSpaceOnUse">
<stop stop-color="#0C9136"/>
<stop offset="1" stop-color="#181A20"/>
</linearGradient>
<linearGradient id="paint83_linear_3672_283" x1="753" y1="306" x2="753" y2="343.5" gradientUnits="userSpaceOnUse">
<stop stop-color="#0C9136"/>
<stop offset="1" stop-color="#181A20"/>
</linearGradient>
<linearGradient id="paint84_linear_3672_283" x1="726" y1="330.5" x2="726" y2="359" gradientUnits="userSpaceOnUse">
<stop stop-color="#0C9136"/>
<stop offset="1" stop-color="#181A20"/>
</linearGradient>
<linearGradient id="paint85_linear_3672_283" x1="708.75" y1="232.5" x2="708.75" y2="274" gradientUnits="userSpaceOnUse">
<stop stop-color="#0C9136"/>
<stop offset="1" stop-color="#181A20"/>
</linearGradient>
<linearGradient id="paint86_linear_3672_283" x1="447.25" y1="50.5" x2="447.25" y2="151.5" gradientUnits="userSpaceOnUse">
<stop stop-color="#0C9136"/>
<stop offset="1" stop-color="#181A20"/>
</linearGradient>
<linearGradient id="paint87_linear_3672_283" x1="517" y1="52.5" x2="517" y2="236" gradientUnits="userSpaceOnUse">
<stop stop-color="#0C9136"/>
<stop offset="1" stop-color="#181A20"/>
</linearGradient>
<linearGradient id="paint88_linear_3672_283" x1="441.5" y1="186.5" x2="441.5" y2="271.5" gradientUnits="userSpaceOnUse">
<stop stop-color="#0C9136"/>
<stop offset="1" stop-color="#181A20"/>
</linearGradient>
<linearGradient id="paint89_linear_3672_283" x1="414" y1="12" x2="414" y2="354" gradientUnits="userSpaceOnUse">
<stop stop-color="#0C9136"/>
<stop offset="1" stop-color="#181A20"/>
</linearGradient>
<linearGradient id="paint90_linear_3672_283" x1="571" y1="281" x2="571" y2="368.5" gradientUnits="userSpaceOnUse">
<stop stop-color="#0C9136"/>
<stop offset="1" stop-color="#181A20"/>
</linearGradient>
<linearGradient id="paint91_linear_3672_283" x1="542" y1="89.5" x2="542" y2="355" gradientUnits="userSpaceOnUse">
<stop stop-color="#0C9136"/>
<stop offset="1" stop-color="#181A20"/>
</linearGradient>
<linearGradient id="paint92_linear_3672_283" x1="609.25" y1="292.5" x2="609.25" y2="390.5" gradientUnits="userSpaceOnUse">
<stop stop-color="#0C9136"/>
<stop offset="1" stop-color="#181A20"/>
</linearGradient>
<linearGradient id="paint93_linear_3672_283" x1="442" y1="695" x2="442" y2="659" gradientUnits="userSpaceOnUse">
<stop stop-color="#0C9136"/>
<stop offset="1" stop-color="#181A20"/>
</linearGradient>
<linearGradient id="paint94_linear_3672_283" x1="521.25" y1="727.5" x2="521.25" y2="650.5" gradientUnits="userSpaceOnUse">
<stop stop-color="#0C9136"/>
<stop offset="1" stop-color="#181A20"/>
</linearGradient>
<linearGradient id="paint95_linear_3672_283" x1="486.5" y1="787" x2="486.5" y2="701" gradientUnits="userSpaceOnUse">
<stop stop-color="#0C9136"/>
<stop offset="1" stop-color="#181A20"/>
</linearGradient>
<linearGradient id="paint96_linear_3672_283" x1="514.25" y1="768" x2="514.25" y2="757.5" gradientUnits="userSpaceOnUse">
<stop stop-color="#0C9136"/>
<stop offset="1" stop-color="#181A20"/>
</linearGradient>
<linearGradient id="paint97_linear_3672_283" x1="491" y1="782" x2="491" y2="729" gradientUnits="userSpaceOnUse">
<stop stop-color="#0C9136"/>
<stop offset="1" stop-color="#181A20"/>
</linearGradient>
<linearGradient id="paint98_linear_3672_283" x1="532.25" y1="490.5" x2="532.25" y2="454" gradientUnits="userSpaceOnUse">
<stop stop-color="#0C9136"/>
<stop offset="1" stop-color="#181A20"/>
</linearGradient>
<linearGradient id="paint99_linear_3672_283" x1="644" y1="659" x2="644" y2="608.5" gradientUnits="userSpaceOnUse">
<stop stop-color="#0C9136"/>
<stop offset="1" stop-color="#181A20"/>
</linearGradient>
<linearGradient id="paint100_linear_3672_283" x1="561" y1="655" x2="561" y2="575.5" gradientUnits="userSpaceOnUse">
<stop stop-color="#0C9136"/>
<stop offset="1" stop-color="#181A20"/>
</linearGradient>
<linearGradient id="paint101_linear_3672_283" x1="545.75" y1="645" x2="545.75" y2="570.5" gradientUnits="userSpaceOnUse">
<stop stop-color="#0C9136"/>
<stop offset="1" stop-color="#181A20"/>
</linearGradient>
<linearGradient id="paint102_linear_3672_283" x1="528.75" y1="644.5" x2="528.75" y2="563" gradientUnits="userSpaceOnUse">
<stop stop-color="#0C9136"/>
<stop offset="1" stop-color="#181A20"/>
</linearGradient>
<linearGradient id="paint103_linear_3672_283" x1="714.25" y1="612.5" x2="714.25" y2="541.5" gradientUnits="userSpaceOnUse">
<stop stop-color="#0C9136"/>
<stop offset="1" stop-color="#181A20"/>
</linearGradient>
<linearGradient id="paint104_linear_3672_283" x1="704.5" y1="633.5" x2="704.5" y2="574.5" gradientUnits="userSpaceOnUse">
<stop stop-color="#0C9136"/>
<stop offset="1" stop-color="#181A20"/>
</linearGradient>
<linearGradient id="paint105_linear_3672_283" x1="651" y1="621" x2="651" y2="513" gradientUnits="userSpaceOnUse">
<stop stop-color="#0C9136"/>
<stop offset="1" stop-color="#181A20"/>
</linearGradient>
<linearGradient id="paint106_linear_3672_283" x1="615.5" y1="547.5" x2="615.5" y2="513" gradientUnits="userSpaceOnUse">
<stop stop-color="#0C9136"/>
<stop offset="1" stop-color="#181A20"/>
</linearGradient>
<linearGradient id="paint107_linear_3672_283" x1="593.75" y1="533.5" x2="593.75" y2="490.5" gradientUnits="userSpaceOnUse">
<stop stop-color="#0C9136"/>
<stop offset="1" stop-color="#181A20"/>
</linearGradient>
<linearGradient id="paint108_linear_3672_283" x1="727.25" y1="539.5" x2="727.25" y2="509" gradientUnits="userSpaceOnUse">
<stop stop-color="#0C9136"/>
<stop offset="1" stop-color="#181A20"/>
</linearGradient>
<linearGradient id="paint109_linear_3672_283" x1="507.75" y1="525.5" x2="507.75" y2="497.5" gradientUnits="userSpaceOnUse">
<stop stop-color="#0C9136"/>
<stop offset="1" stop-color="#181A20"/>
</linearGradient>
<linearGradient id="paint110_linear_3672_283" x1="650" y1="571" x2="650" y2="513.5" gradientUnits="userSpaceOnUse">
<stop stop-color="#0C9136"/>
<stop offset="1" stop-color="#181A20"/>
</linearGradient>
<linearGradient id="paint111_linear_3672_283" x1="693.5" y1="563" x2="693.5" y2="541.5" gradientUnits="userSpaceOnUse">
<stop stop-color="#0C9136"/>
<stop offset="1" stop-color="#181A20"/>
</linearGradient>
<linearGradient id="paint112_linear_3672_283" x1="773.75" y1="472" x2="773.75" y2="434.5" gradientUnits="userSpaceOnUse">
<stop stop-color="#0C9136"/>
<stop offset="1" stop-color="#181A20"/>
</linearGradient>
<linearGradient id="paint113_linear_3672_283" x1="770" y1="464.5" x2="770" y2="435" gradientUnits="userSpaceOnUse">
<stop stop-color="#0C9136"/>
<stop offset="1" stop-color="#181A20"/>
</linearGradient>
<linearGradient id="paint114_linear_3672_283" x1="753" y1="487" x2="753" y2="449.5" gradientUnits="userSpaceOnUse">
<stop stop-color="#0C9136"/>
<stop offset="1" stop-color="#181A20"/>
</linearGradient>
<linearGradient id="paint115_linear_3672_283" x1="726" y1="462.5" x2="726" y2="434" gradientUnits="userSpaceOnUse">
<stop stop-color="#0C9136"/>
<stop offset="1" stop-color="#181A20"/>
</linearGradient>
<linearGradient id="paint116_linear_3672_283" x1="708.75" y1="560.5" x2="708.75" y2="519" gradientUnits="userSpaceOnUse">
<stop stop-color="#0C9136"/>
<stop offset="1" stop-color="#181A20"/>
</linearGradient>
<linearGradient id="paint117_linear_3672_283" x1="447.25" y1="742.5" x2="447.25" y2="641.5" gradientUnits="userSpaceOnUse">
<stop stop-color="#0C9136"/>
<stop offset="1" stop-color="#181A20"/>
</linearGradient>
<linearGradient id="paint118_linear_3672_283" x1="517" y1="740.5" x2="517" y2="557" gradientUnits="userSpaceOnUse">
<stop stop-color="#0C9136"/>
<stop offset="1" stop-color="#181A20"/>
</linearGradient>
<linearGradient id="paint119_linear_3672_283" x1="441.5" y1="606.5" x2="441.5" y2="521.5" gradientUnits="userSpaceOnUse">
<stop stop-color="#0C9136"/>
<stop offset="1" stop-color="#181A20"/>
</linearGradient>
<linearGradient id="paint120_linear_3672_283" x1="414" y1="781" x2="414" y2="439" gradientUnits="userSpaceOnUse">
<stop stop-color="#0C9136"/>
<stop offset="1" stop-color="#181A20"/>
</linearGradient>
<linearGradient id="paint121_linear_3672_283" x1="571" y1="512" x2="571" y2="424.5" gradientUnits="userSpaceOnUse">
<stop stop-color="#0C9136"/>
<stop offset="1" stop-color="#181A20"/>
</linearGradient>
<linearGradient id="paint122_linear_3672_283" x1="542" y1="703.5" x2="542" y2="438" gradientUnits="userSpaceOnUse">
<stop stop-color="#0C9136"/>
<stop offset="1" stop-color="#181A20"/>
</linearGradient>
<linearGradient id="paint123_linear_3672_283" x1="609.25" y1="500.5" x2="609.25" y2="402.5" gradientUnits="userSpaceOnUse">
<stop stop-color="#0C9136"/>
<stop offset="1" stop-color="#181A20"/>
</linearGradient>
</defs>
</svg>
